<?xml version="1.0" standalone="no"?>
<!DOCTYPE svg PUBLIC "-//W3C//DTD SVG 20010904//EN"
 "http://www.w3.org/TR/2001/REC-SVG-20010904/DTD/svg10.dtd">
<svg version="1.0" xmlns="http://www.w3.org/2000/svg"
 width="1026.000000pt" height="1026.000000pt" viewBox="0 0 1026.000000 1026.000000"
 preserveAspectRatio="xMidYMid meet">
<metadata>
Created by potrace 1.14, written by Peter Selinger 2001-2017
</metadata>
<g transform="translate(0.000000,1026.000000) scale(0.100000,-0.100000)"
fill="#000000" stroke="none">
<path d="M0 8808 c0 -799 4 -1458 8 -1465 4 -6 21 -15 37 -19 17 -4 36 -11 43
-17 9 -7 18 -4 32 8 11 10 23 15 27 12 4 -4 -2 -14 -13 -22 -10 -8 -14 -15 -8
-15 6 0 17 7 24 15 7 8 16 12 22 9 5 -3 4 -12 -4 -21 -11 -14 -10 -15 7 -10
11 4 33 0 49 -8 16 -9 32 -12 35 -7 12 17 39 21 45 5 4 -9 14 -13 26 -10 10 3
21 0 23 -7 2 -6 8 -8 13 -3 4 4 0 15 -9 24 -12 12 -17 13 -17 5 0 -7 -5 -10
-10 -7 -6 4 -8 11 -5 16 4 5 -1 9 -9 9 -9 0 -16 4 -16 8 0 5 -21 19 -48 32
-104 49 -106 52 -88 106 4 14 1 27 -9 38 -13 12 -14 20 -5 37 13 24 4 41 -10
19 -8 -12 -10 -10 -10 7 0 16 -4 21 -15 17 -8 -4 -12 -10 -9 -15 3 -5 -4 -9
-16 -9 -17 0 -19 3 -11 18 7 13 6 23 -1 30 -9 9 -6 12 12 12 23 0 23 0 5 20
-10 11 -19 33 -21 48 -1 15 0 21 3 15 2 -7 10 -13 16 -13 6 0 19 -7 29 -16 12
-12 21 -14 30 -6 7 5 22 12 33 15 11 3 2 5 -20 4 -22 0 -46 2 -53 7 -16 10
-16 28 1 24 13 -3 17 3 17 23 0 5 -3 8 -8 6 -4 -3 -12 1 -19 8 -10 10 -9 16 3
26 8 6 17 9 21 5 3 -3 1 -6 -5 -6 -7 0 -12 -5 -12 -11 0 -6 14 -9 35 -6 19 3
35 1 35 -4 0 -5 -4 -9 -10 -9 -5 0 -10 -4 -10 -10 0 -18 22 -11 27 9 4 17 9
18 36 8 17 -6 43 -16 57 -24 14 -7 33 -13 42 -13 9 0 19 -4 22 -9 8 -12 46
-21 46 -11 0 4 -12 13 -27 19 -16 6 -56 26 -90 45 -35 18 -60 29 -57 22 3 -6
0 -4 -8 4 -7 8 -22 17 -33 18 -28 5 -32 12 -7 12 29 0 28 17 0 23 -13 2 -1 5
25 6 28 0 46 -3 42 -8 -8 -15 15 -25 28 -12 8 8 8 11 -2 11 -7 0 -9 5 -6 10 4
6 10 8 15 5 5 -3 11 -1 15 5 4 6 11 8 16 5 5 -4 9 -1 9 5 0 6 -8 14 -17 17
-24 9 -34 25 -27 44 3 12 -7 24 -33 40 -43 26 -53 38 -52 59 1 11 3 10 6 -2 5
-20 33 -19 57 1 14 12 19 11 34 -1 9 -7 31 -15 47 -17 17 -1 37 -9 46 -17 19
-17 60 -18 58 -1 -4 30 2 47 16 47 8 0 15 -7 15 -15 0 -8 7 -15 15 -15 8 0 15
-5 15 -10 0 -6 11 -8 25 -4 14 4 32 1 40 -6 8 -7 21 -10 29 -7 7 3 18 1 23 -4
5 -5 24 -11 42 -13 18 -2 38 -9 44 -15 6 -6 21 -11 33 -11 13 0 25 -4 28 -9 5
-8 36 -15 113 -25 18 -2 35 0 39 5 3 5 -1 9 -9 9 -15 0 -129 35 -162 50 -11 5
-38 14 -60 20 -22 7 -56 19 -75 28 -19 9 -41 15 -47 14 -12 -3 -18 18 -14 42
1 4 -4 14 -10 22 -19 23 -1 29 36 11 19 -9 37 -12 40 -7 3 5 12 7 20 4 8 -4
12 -10 9 -15 -3 -5 2 -6 10 -3 8 3 17 12 20 20 3 9 1 12 -4 9 -6 -3 -10 1 -10
9 0 14 -11 19 -37 15 -3 0 -10 6 -15 15 -5 9 -17 16 -27 16 -10 0 -30 9 -44
20 -14 11 -31 20 -39 20 -7 0 -21 7 -31 14 -13 10 -15 15 -5 19 7 3 -13 16
-45 31 -68 31 -68 31 -61 9 5 -15 4 -16 -5 -3 -8 12 -5 19 12 33 18 14 19 16
3 10 -14 -4 -17 -3 -12 6 5 7 16 9 28 5 11 -3 26 -7 32 -8 6 -1 17 -5 24 -9 7
-5 22 -5 34 -1 l23 7 -25 10 c-14 6 -31 9 -38 8 -21 -3 -46 21 -31 30 8 4 1
13 -21 24 -40 21 -27 33 30 28 22 -2 40 1 40 6 0 4 11 6 25 3 14 -2 25 -9 25
-14 0 -6 -10 -8 -23 -5 -12 4 -29 2 -37 -3 -13 -8 -12 -11 5 -24 31 -24 52
-20 30 4 -18 20 -18 21 0 14 11 -5 22 -2 29 7 14 17 46 24 46 9 0 -6 4 -9 9
-6 13 8 10 57 -3 54 -6 -2 -38 16 -70 40 -33 23 -54 42 -48 42 6 0 13 -4 16
-9 7 -10 56 -21 56 -12 0 4 -16 13 -35 20 -19 7 -35 16 -35 20 0 13 88 -4 107
-21 19 -16 102 -42 109 -35 3 3 -1 11 -9 18 -7 8 -12 20 -10 26 3 7 -7 15 -21
19 -33 8 -34 23 -2 17 14 -3 31 1 39 8 12 12 9 17 -25 36 -22 13 -44 21 -48
18 -14 -9 -33 34 -22 48 6 7 6 21 1 35 -8 20 -24 27 -56 23 -7 -1 -13 8 -13
19 0 12 4 19 8 16 4 -2 18 3 30 12 20 16 21 19 7 46 -18 35 -18 33 1 40 12 5
15 2 10 -10 -5 -14 -4 -15 9 -4 8 7 15 20 15 29 0 10 3 12 8 5 4 -6 17 -13 30
-16 18 -5 22 -2 22 17 0 27 -16 42 -23 23 -3 -7 -6 -3 -6 9 -1 16 -5 21 -17
16 -8 -3 -13 -12 -10 -20 4 -8 1 -11 -5 -8 -6 4 -8 14 -5 22 8 20 -23 51 -34
33 -8 -13 -30 -6 -30 11 0 16 62 10 76 -8 13 -17 13 -17 14 0 0 9 -13 25 -30
36 -16 10 -27 21 -23 24 3 4 -1 7 -10 7 -9 0 -17 5 -17 10 0 15 16 12 30 -5
17 -20 31 -19 24 3 -4 10 -3 13 3 6 9 -12 83 -6 83 7 0 5 -12 16 -27 26 -58
37 -68 66 -20 62 18 -2 37 0 44 4 13 8 45 -1 54 -16 4 -5 12 -6 19 -2 9 6 6
13 -11 27 l-24 19 23 -11 c13 -6 26 -9 29 -6 10 9 -7 24 -55 47 -54 26 -65 38
-51 55 12 15 -5 28 -23 18 -7 -4 -4 2 6 14 12 14 26 20 37 17 10 -4 27 -1 36
5 15 10 15 11 1 6 -10 -3 -18 2 -21 15 -4 16 -2 19 14 14 13 -4 19 -2 19 8 0
9 6 17 13 20 9 3 8 9 -5 23 -22 25 -9 47 29 49 16 1 34 5 41 9 7 4 12 4 11 -1
-4 -22 3 -33 22 -33 11 0 29 -5 40 -10 12 -7 19 -7 19 -1 0 6 15 4 38 -3 20
-8 36 -18 35 -23 -1 -5 4 -10 11 -10 15 0 127 -44 141 -55 13 -11 35 -10 35 2
0 6 -6 10 -14 10 -16 0 -50 14 -81 33 -11 7 -71 39 -134 71 -84 43 -111 60
-102 69 15 15 14 30 -1 25 -6 -2 -19 3 -29 13 -9 9 -23 19 -30 21 -21 7 7 38
35 38 17 0 19 2 6 11 -11 8 -12 12 -2 16 6 2 12 11 12 19 0 9 5 12 10 9 6 -4
8 -11 5 -16 -4 -5 2 -6 11 -2 13 5 16 2 12 -9 -5 -11 0 -15 15 -14 28 1 31 18
8 42 -10 11 -22 31 -26 44 -7 22 -6 23 9 8 9 -9 26 -16 39 -14 34 3 26 21 -8
18 -22 -1 -26 0 -15 8 13 8 13 12 -3 27 -17 17 -18 17 -11 1 4 -12 1 -18 -8
-18 -16 0 -17 26 -2 53 8 14 17 17 37 12 15 -4 27 -11 27 -16 0 -5 5 -9 12 -9
6 0 2 10 -10 23 -12 13 -19 26 -16 30 4 4 1 14 -7 23 -12 14 -9 16 21 13 24
-2 34 1 33 9 -2 7 2 12 7 12 6 0 10 5 10 11 0 5 -5 7 -10 4 -6 -3 -10 -1 -10
4 0 6 9 11 20 11 11 0 19 5 17 12 -1 6 9 14 23 18 17 4 21 8 12 14 -7 4 -10
12 -6 17 3 5 10 7 15 4 5 -4 9 -2 9 4 0 6 7 8 15 5 23 -9 43 19 47 67 1 24 7
47 12 50 5 4 10 19 11 34 2 15 13 37 24 49 12 12 21 28 21 34 0 7 5 12 10 12
6 0 10 5 10 10 0 7 -198 10 -575 10 l-575 0 0 -1452z m615 522 c3 -5 1 -10 -4
-10 -6 0 -11 5 -11 10 0 6 2 10 4 10 3 0 8 -4 11 -10z m-155 -541 c0 -14 -17
-10 -23 5 -4 10 -1 13 9 9 7 -3 14 -9 14 -14z m-20 -59 c0 -5 -4 -10 -10 -10
-5 0 -10 5 -10 10 0 6 5 10 10 10 6 0 10 -4 10 -10z m128 -130 c10 0 10 -5 2
-20 -6 -11 -15 -20 -21 -20 -6 0 -8 4 -5 9 3 5 -1 11 -8 14 -8 3 -17 1 -20 -6
-3 -8 -14 -1 -30 18 -32 38 -16 50 33 24 20 -10 42 -19 49 -19z m-158 -154 c0
-3 -4 -8 -10 -11 -5 -3 -10 -1 -10 4 0 6 5 11 10 11 6 0 10 -2 10 -4z m-10
-210 c0 -3 -4 -8 -10 -11 -5 -3 -10 -1 -10 4 0 6 5 11 10 11 6 0 10 -2 10 -4z
m37 -155 c-1 -12 -6 -17 -15 -14 -10 5 -11 8 -2 13 7 5 9 13 5 20 -5 8 -4 11
3 6 6 -3 10 -15 9 -25z m53 3 c0 -3 -7 -12 -15 -21 -20 -19 -32 -9 -15 12 12
15 30 20 30 9z m-320 -24 c0 -5 -4 -10 -10 -10 -5 0 -10 5 -10 10 0 6 5 10 10
10 6 0 10 -4 10 -10z m-26 -41 c-2 -4 2 -9 8 -12 8 -2 9 -8 4 -13 -5 -5 -11
-4 -13 3 -2 7 -10 11 -16 9 -7 -1 -9 -1 -4 1 4 3 5 8 3 12 -3 4 1 8 9 8 8 0
12 -4 9 -8z m266 -39 c0 -5 -4 -10 -10 -10 -5 0 -10 5 -10 10 0 6 5 10 10 10
6 0 10 -4 10 -10z m-257 -33 c-7 -11 -23 2 -23 19 0 12 2 12 14 2 8 -7 12 -16
9 -21z m42 -17 c3 -6 -1 -7 -9 -4 -18 7 -21 14 -7 14 6 0 13 -4 16 -10z m55
-20 c0 -5 -9 -8 -20 -7 -20 1 -25 8 -14 20 8 7 34 -3 34 -13z m-145 -20 c-3
-5 -14 -10 -23 -9 -14 0 -13 2 3 9 27 11 27 11 20 0z m58 -22 c-3 -16 -9 -28
-14 -28 -11 0 -11 3 1 36 13 33 20 29 13 -8z m-32 -46 c-7 -2 -18 1 -23 6 -8
8 -4 9 13 5 13 -4 18 -8 10 -11z m15 -373 c3 -5 -2 -9 -10 -9 -8 0 -18 5 -21
11 -4 6 -13 8 -21 5 -8 -3 -14 1 -14 9 0 11 6 12 30 3 17 -5 33 -14 36 -19z
m-32 -19 c14 -5 26 -14 26 -20 0 -17 -26 -11 -45 10 -20 23 -17 24 19 10z"/>
<path d="M840 9780 c19 -13 30 -13 30 0 0 6 -10 10 -22 10 -19 0 -20 -2 -8
-10z"/>
<path d="M672 9248 c5 -15 28 -23 28 -10 0 5 -7 13 -16 16 -10 4 -14 1 -12 -6z"/>
<path d="M740 9131 c0 -12 23 -31 37 -31 21 0 15 14 -12 27 -14 6 -25 8 -25 4z"/>
<path d="M800 9090 c-20 -12 -10 -19 14 -10 11 3 15 9 10 13 -6 3 -16 2 -24
-3z"/>
<path d="M670 9040 c0 -5 5 -10 11 -10 5 0 7 5 4 10 -3 6 -8 10 -11 10 -2 0
-4 -4 -4 -10z"/>
<path d="M580 9030 c0 -5 7 -10 16 -10 8 0 12 5 9 10 -3 6 -10 10 -16 10 -5 0
-9 -4 -9 -10z"/>
<path d="M635 8970 c4 -6 11 -8 16 -5 14 9 11 15 -7 15 -8 0 -12 -5 -9 -10z"/>
<path d="M573 8818 c9 -7 18 -24 19 -38 2 -20 8 -25 29 -26 23 -1 25 1 14 12
-7 8 -19 14 -25 14 -6 0 -10 6 -7 13 4 12 -20 36 -37 37 -6 0 -2 -6 7 -12z"/>
<path d="M571 8674 c0 -11 3 -14 6 -6 3 7 2 16 -1 19 -3 4 -6 -2 -5 -13z"/>
<path d="M615 8650 c3 -5 11 -10 16 -10 6 0 7 5 4 10 -3 6 -11 10 -16 10 -6 0
-7 -4 -4 -10z"/>
<path d="M655 8560 c3 -5 8 -10 11 -10 2 0 4 5 4 10 0 6 -5 10 -11 10 -5 0 -7
-4 -4 -10z"/>
<path d="M520 8490 c0 -5 5 -10 10 -10 6 0 10 5 10 10 0 6 -4 10 -10 10 -5 0
-10 -4 -10 -10z"/>
<path d="M712 8459 c2 -7 16 -13 31 -13 30 -2 24 8 -12 19 -17 5 -22 4 -19 -6z"/>
<path d="M515 8390 c-3 -5 -1 -10 4 -10 6 0 11 5 11 10 0 6 -2 10 -4 10 -3 0
-8 -4 -11 -10z"/>
<path d="M660 8389 c0 -5 9 -9 20 -9 11 0 20 2 20 4 0 2 -9 6 -20 9 -11 3 -20
1 -20 -4z"/>
<path d="M380 8386 c0 -2 7 -6 15 -10 8 -3 15 -1 15 4 0 6 -7 10 -15 10 -8 0
-15 -2 -15 -4z"/>
<path d="M535 8344 c9 -9 19 -13 23 -10 3 4 0 11 -8 16 -24 15 -33 11 -15 -6z"/>
<path d="M455 8330 c3 -5 8 -10 11 -10 2 0 4 5 4 10 0 6 -5 10 -11 10 -5 0 -7
-4 -4 -10z"/>
<path d="M545 8310 c-3 -5 -1 -10 4 -10 6 0 11 5 11 10 0 6 -2 10 -4 10 -3 0
-8 -4 -11 -10z"/>
<path d="M503 8286 c0 -8 6 -12 15 -8 11 4 14 1 10 -10 -5 -13 -3 -14 18 -4
29 13 31 26 5 26 -11 0 -26 2 -34 5 -8 4 -14 0 -14 -9z"/>
<path d="M420 8270 c0 -5 5 -10 11 -10 5 0 7 5 4 10 -3 6 -8 10 -11 10 -2 0
-4 -4 -4 -10z"/>
<path d="M680 8091 c0 -13 8 -17 49 -26 24 -5 32 -4 26 5 -4 6 -9 9 -12 6 -3
-3 -15 1 -27 9 -24 17 -36 19 -36 6z"/>
<path d="M695 8040 c3 -5 8 -10 11 -10 2 0 4 5 4 10 0 6 -5 10 -11 10 -5 0 -7
-4 -4 -10z"/>
<path d="M280 7966 c0 -9 5 -16 10 -16 6 0 10 4 10 9 0 6 -4 13 -10 16 -5 3
-10 -1 -10 -9z"/>
<path d="M445 7960 c3 -5 13 -10 21 -10 8 0 12 5 9 10 -3 6 -13 10 -21 10 -8
0 -12 -4 -9 -10z"/>
<path d="M320 7945 c7 -8 17 -15 22 -15 6 0 5 7 -2 15 -7 8 -17 15 -22 15 -6
0 -5 -7 2 -15z"/>
<path d="M288 7903 c7 -3 16 -2 19 1 4 3 -2 6 -13 5 -11 0 -14 -3 -6 -6z"/>
<path d="M335 7820 c10 -11 24 -20 32 -20 7 0 24 -7 37 -15 13 -9 28 -15 32
-14 5 1 22 -3 37 -9 16 -7 36 -12 45 -12 19 1 -67 45 -106 55 -13 3 -31 13
-39 20 -8 8 -24 15 -35 15 -20 0 -21 -1 -3 -20z"/>
<path d="M2266 7781 c5 -5 20 -12 34 -16 22 -7 23 -6 11 9 -7 9 -23 16 -34 16
-13 0 -17 -4 -11 -9z"/>
<path d="M2138 7772 c-19 -4 -24 -18 -8 -24 6 -2 6 -8 0 -18 -8 -12 -11 -13
-19 -1 -5 8 -16 11 -30 6 -13 -4 -28 -1 -36 5 -15 12 -45 7 -45 -7 0 -5 16
-17 35 -27 54 -30 46 -54 -23 -63 -19 -3 -47 -16 -61 -29 -14 -13 -30 -24 -36
-24 -14 -1 37 -40 53 -40 7 0 12 -13 12 -30 0 -22 7 -33 29 -44 16 -9 31 -22
34 -30 3 -8 19 -17 35 -21 17 -3 33 -14 36 -23 17 -51 73 -108 116 -117 29 -6
32 -10 28 -36 -3 -17 -1 -32 4 -35 4 -3 8 -15 8 -27 0 -16 3 -18 9 -9 7 12 12
12 30 1 11 -8 21 -17 21 -20 0 -9 50 -27 78 -27 14 -1 22 5 22 16 0 10 15 25
33 35 17 10 40 29 50 42 17 24 17 24 -28 66 -25 23 -43 44 -42 46 2 2 19 -3
38 -11 19 -7 56 -16 83 -20 l49 -6 -19 22 c-10 13 -23 28 -29 33 -18 18 -65
83 -65 91 0 4 11 -3 25 -16 14 -13 28 -20 32 -17 6 7 -125 137 -139 137 -4 0
-15 14 -24 31 l-16 32 29 -8 c15 -4 46 -9 68 -11 23 -1 45 -10 52 -20 7 -10
13 -14 13 -8 0 16 -172 174 -196 180 -13 3 -31 3 -40 0 -8 -3 -25 1 -38 9 -12
8 -25 13 -28 10 -3 -3 -23 -2 -44 3 -22 4 -47 6 -56 4z"/>
<path d="M2429 7746 c14 -14 27 -26 29 -26 10 0 -26 44 -39 48 -8 3 -3 -7 10
-22z"/>
<path d="M2540 7732 c0 -4 9 -13 20 -20 22 -13 27 -3 8 16 -14 14 -28 16 -28
4z"/>
<path d="M4941 7698 c0 -18 4 -41 8 -51 6 -17 8 -17 19 -4 7 8 11 28 8 44 -2
15 -5 31 -5 36 -1 4 -8 7 -16 7 -10 0 -15 -10 -14 -32z"/>
<path d="M381 7716 c2 -1 20 -8 39 -14 32 -11 33 -10 16 3 -16 12 -69 23 -55
11z"/>
<path d="M90 7635 c7 -8 17 -15 22 -15 5 0 3 7 -6 15 -8 8 -18 15 -22 15 -3 0
-1 -7 6 -15z"/>
<path d="M5095 7644 c-50 -12 -112 -39 -128 -56 -21 -21 -34 -128 -19 -154 5
-9 5 -36 -1 -65 -9 -45 -7 -52 16 -82 26 -34 90 -62 113 -49 7 4 23 23 36 42
26 39 69 64 104 60 77 -7 158 3 180 21 25 20 13 106 -23 160 -44 68 -83 107
-112 113 -46 9 -145 15 -166 10z"/>
<path d="M4946 7607 c3 -10 9 -15 12 -12 3 3 0 11 -7 18 -10 9 -11 8 -5 -6z"/>
<path d="M160 7502 c0 -6 5 -14 10 -17 6 -4 8 -23 5 -43 -3 -21 -2 -29 2 -20
6 12 12 15 23 8 20 -13 60 -13 60 0 0 7 13 8 35 4 29 -5 35 -3 35 11 0 12 -5
15 -20 10 -12 -4 -20 -2 -20 5 0 6 -6 10 -12 9 -7 -1 -26 4 -43 11 -16 7 -34
12 -39 11 -4 -1 -14 4 -22 10 -9 8 -14 8 -14 1z"/>
<path d="M367 7419 c7 -7 15 -10 18 -7 3 3 -2 9 -12 12 -14 6 -15 5 -6 -5z"/>
<path d="M300 7415 c0 -2 9 -9 20 -15 16 -9 18 -8 14 5 -5 13 -34 22 -34 10z"/>
<path d="M361 7368 c-1 -12 -6 -15 -18 -11 -12 5 -15 2 -10 -10 3 -8 1 -18 -6
-20 -7 -2 9 -6 34 -8 43 -4 45 -3 41 19 -3 17 -7 20 -13 11 -6 -10 -11 -7 -18
11 -7 17 -10 20 -10 8z"/>
<path d="M485 7310 c-3 -5 1 -13 10 -16 22 -9 29 1 11 15 -10 8 -16 9 -21 1z"/>
<path d="M0 7252 c0 -32 5 -54 15 -62 8 -7 12 -17 8 -24 -4 -6 2 -4 12 4 10 8
16 9 11 3 -4 -7 2 -20 13 -30 11 -9 17 -21 14 -26 -3 -5 9 -1 27 8 27 14 30
19 19 32 -8 8 -22 19 -34 23 -18 8 -17 9 7 9 14 1 29 -5 31 -11 4 -10 6 -10 6
-1 1 7 -6 18 -15 25 -8 7 -24 21 -35 31 -10 9 -19 14 -19 11 0 -3 -14 8 -30
26 l-30 32 0 -50z"/>
<path d="M540 7280 c0 -5 9 -10 21 -10 11 0 17 5 14 10 -3 6 -13 10 -21 10 -8
0 -14 -4 -14 -10z"/>
<path d="M390 7253 c0 -18 33 -48 38 -34 2 6 8 9 13 5 5 -3 9 0 9 5 0 11 -15
15 -34 12 -5 -1 -13 4 -17 11 -6 9 -9 9 -9 1z"/>
<path d="M2538 7183 c-44 -11 -6 -42 61 -50 48 -5 51 -4 44 13 -14 38 -52 51
-105 37z"/>
<path d="M25 7139 c-4 -6 -5 -12 -2 -15 2 -3 7 2 10 11 7 17 1 20 -8 4z"/>
<path d="M1 7124 c0 -11 3 -14 6 -6 3 7 2 16 -1 19 -3 4 -6 -2 -5 -13z"/>
<path d="M148 7133 c6 -2 18 -2 25 0 6 3 1 5 -13 5 -14 0 -19 -2 -12 -5z"/>
<path d="M2466 7095 c-3 -8 -1 -15 4 -15 6 0 10 7 10 15 0 8 -2 15 -4 15 -2 0
-6 -7 -10 -15z"/>
<path d="M1 6966 c2 -79 6 -106 15 -106 7 0 17 8 23 18 9 16 11 16 28 -2 17
-18 17 -18 -6 -11 -16 5 -21 4 -17 -4 9 -14 43 -14 48 0 2 6 14 5 33 -5 34
-18 44 -14 22 8 -8 8 -17 12 -21 9 -3 -4 -6 -1 -6 5 0 5 6 12 12 15 8 3 3 9
-12 15 -17 7 -20 11 -8 11 22 1 41 36 33 61 -4 12 -2 20 4 20 6 0 11 -4 11
-10 0 -5 5 -10 10 -10 18 0 11 20 -16 45 -32 30 -74 33 -75 8 0 -12 -2 -13 -6
-5 -4 10 -9 9 -24 -4 -20 -18 -27 -6 -7 14 14 14 11 17 -20 26 -22 7 -22 7
-21 -98z m38 -32 c-17 -21 -31 -17 -19 6 6 11 15 18 21 14 6 -4 6 -11 -2 -20z
m26 -24 c3 -6 -1 -7 -9 -4 -18 7 -21 14 -7 14 6 0 13 -4 16 -10z"/>
<path d="M3860 7030 c13 -23 20 -26 20 -6 0 8 -7 16 -15 20 -13 4 -14 2 -5
-14z"/>
<path d="M2499 7003 c-7 -13 -16 -23 -21 -23 -4 0 -8 -7 -8 -15 0 -8 -4 -15
-9 -15 -5 0 -11 -9 -14 -20 -3 -12 -14 -20 -26 -20 -24 0 -73 -20 -83 -35 -5
-6 -8 -5 -8 3 0 6 -4 12 -10 12 -5 0 -7 -7 -4 -15 4 -8 2 -15 -4 -15 -16 0
-23 31 -11 47 21 25 -6 38 -74 37 -34 -1 -71 -4 -82 -7 -11 -3 -29 -6 -41 -6
-12 -1 -31 -10 -44 -21 -13 -11 -30 -20 -39 -20 -12 -1 -11 -5 7 -20 13 -10
30 -16 37 -13 8 3 15 0 15 -6 0 -6 8 -11 19 -11 10 0 24 -7 31 -15 7 -8 19
-15 26 -15 15 0 19 -36 5 -44 -5 -3 -12 -26 -15 -51 -4 -24 -12 -47 -17 -51
-6 -3 -8 -12 -5 -20 3 -7 1 -16 -3 -19 -5 -3 -9 -21 -9 -40 0 -31 3 -35 25
-35 26 0 113 46 113 60 0 12 68 33 90 27 25 -7 36 9 45 63 9 55 37 117 68 151
26 28 133 100 139 94 2 -3 4 11 5 30 1 40 -8 48 -53 50 -25 0 -36 -5 -45 -22z"/>
<path d="M3890 6992 c0 -5 -37 -13 -82 -19 -46 -7 -96 -17 -113 -24 -16 -7
-33 -12 -37 -11 -5 1 -8 -3 -8 -8 0 -6 -9 -20 -20 -32 -23 -25 -26 -38 -7 -38
8 0 7 -4 -3 -10 -13 -8 -12 -10 3 -10 9 0 17 -4 17 -10 0 -5 -9 -10 -21 -10
-22 0 -58 -36 -59 -57 0 -7 -7 -13 -14 -13 -12 0 -13 -6 -4 -30 7 -22 7 -34
-1 -44 -7 -9 -8 -15 -2 -18 5 -1 12 -36 15 -76 3 -40 8 -78 11 -83 3 -5 1 -17
-4 -27 -6 -11 -11 -36 -13 -57 -1 -20 -8 -39 -15 -42 -7 -3 -13 -11 -13 -18 0
-7 -10 -15 -22 -19 -19 -5 -20 -8 -8 -16 10 -6 16 -6 18 0 5 13 32 13 32 1 0
-5 -5 -11 -12 -13 -17 -6 0 -28 22 -28 14 0 18 5 14 18 -5 16 -5 16 9 -1 16
-19 137 -33 137 -15 0 5 11 20 25 34 14 14 25 31 25 38 0 8 9 16 20 19 11 3
20 11 20 19 0 7 32 35 70 62 66 47 69 50 50 63 -20 14 -20 14 3 54 12 22 32
42 45 45 17 5 20 9 11 20 -13 15 -4 34 17 34 8 0 14 4 14 8 0 5 19 8 43 8 37
-1 42 1 41 22 0 17 5 22 23 22 13 0 26 7 29 15 4 8 12 15 20 15 8 0 14 10 14
23 0 12 7 31 15 41 8 11 15 24 15 29 0 9 -56 6 -170 -9 -61 -8 -97 7 -105 45
-4 17 -1 37 6 50 11 17 10 23 -5 40 -19 21 -46 28 -46 13z"/>
<path d="M185 6965 c-16 -13 -28 -25 -25 -26 23 -8 50 -4 54 8 3 8 1 11 -4 8
-14 -9 -12 9 2 23 21 21 4 13 -27 -13z"/>
<path d="M275 6950 c3 -5 11 -10 16 -10 6 0 7 5 4 10 -3 6 -11 10 -16 10 -6 0
-7 -4 -4 -10z"/>
<path d="M2770 6920 c-9 -6 -9 -13 -1 -28 14 -26 14 -28 -3 -45 -8 -8 -17 -29
-20 -47 -4 -30 -37 -69 -58 -70 -4 0 -10 -9 -13 -20 -9 -27 -52 -70 -70 -70
-8 0 -15 -7 -15 -16 0 -8 -4 -12 -10 -9 -5 3 -10 -2 -11 -12 0 -11 -3 -13 -6
-5 -4 10 -8 9 -19 -5 -18 -24 -18 -39 1 -23 11 9 22 9 48 1 36 -12 134 -10
155 3 7 4 12 1 12 -8 0 -9 -3 -16 -7 -16 -5 0 -9 -12 -9 -26 -1 -14 -11 -32
-23 -40 -25 -18 -29 -64 -5 -64 31 0 93 23 88 32 -3 5 6 18 20 29 32 25 35 59
5 59 -11 0 -17 5 -14 10 3 6 -4 10 -16 10 -21 0 -21 0 4 26 17 17 33 24 43 20
13 -5 15 -2 10 20 -5 17 -3 23 4 19 6 -4 19 4 30 17 17 21 19 21 20 4 0 -16 2
-16 16 -5 11 9 17 10 23 1 4 -7 11 -4 20 10 11 18 11 20 -4 14 -13 -5 -16 -2
-11 10 3 8 6 21 6 28 0 22 45 37 66 22 28 -21 91 3 80 30 -3 8 1 19 7 26 7 7
16 21 20 31 4 10 11 15 17 12 5 -3 10 3 10 14 0 46 -5 48 -115 43 -84 -4 -109
-2 -129 11 -25 17 -122 22 -146 7z m295 -108 c-3 -3 -11 0 -18 7 -9 10 -8 11
6 5 10 -3 15 -9 12 -12z m-125 -118 c0 -8 -4 -12 -10 -9 -5 3 -10 10 -10 16 0
5 5 9 10 9 6 0 10 -7 10 -16z"/>
<path d="M272 6898 c2 -6 15 -15 28 -20 23 -9 23 -8 5 12 -20 22 -39 27 -33 8z"/>
<path d="M3000 6731 c0 -5 7 -12 16 -15 24 -9 27 -7 10 9 -17 17 -26 19 -26 6z"/>
<path d="M5005 6695 c-5 -2 -22 -6 -37 -9 -16 -4 -28 -13 -28 -21 0 -9 -13
-18 -30 -22 -17 -3 -33 -10 -36 -14 -3 -5 -22 -16 -41 -24 -20 -9 -43 -24 -50
-35 -8 -11 -20 -20 -27 -20 -16 0 -166 -146 -166 -162 0 -7 -13 -22 -29 -32
-26 -18 -28 -24 -27 -75 2 -57 18 -101 37 -101 16 0 35 -23 44 -50 11 -35 23
-40 75 -34 51 5 61 1 82 -40 16 -30 10 -29 155 -39 55 -5 112 -36 115 -65 5
-62 4 -80 -7 -109 -7 -17 -22 -34 -32 -37 -11 -4 -26 -17 -33 -31 -7 -13 -25
-28 -39 -33 -30 -11 -57 -53 -48 -76 9 -23 70 -20 147 8 143 53 167 62 209 86
24 14 48 33 53 43 4 9 12 25 16 35 5 9 25 28 45 41 32 21 35 27 30 55 -3 17
-11 34 -17 38 -6 4 3 8 19 9 17 1 23 3 14 6 -10 2 -16 14 -16 29 0 14 -11 36
-23 50 -22 22 -22 24 -4 24 16 0 17 2 4 10 -13 9 -13 10 0 10 8 1 -5 9 -30 18
-25 10 -45 24 -45 32 0 8 -7 20 -15 27 -12 10 -7 13 29 19 37 6 41 9 24 15
-19 7 -21 15 -20 73 0 36 -2 69 -6 72 -4 4 -7 17 -7 29 0 13 -7 28 -15 35 -11
9 -14 29 -12 77 3 59 0 67 -21 81 -12 8 -21 20 -18 27 11 30 -168 95 -219 80z"/>
<path d="M0 6631 c0 -33 4 -41 18 -41 10 0 23 -5 30 -12 9 -9 12 -9 12 0 0 8
6 9 18 3 89 -46 153 -72 168 -69 13 3 3 11 -34 28 -32 14 -51 28 -48 35 3 8
-15 23 -42 36 -26 13 -53 30 -60 37 -7 6 -17 12 -22 12 -5 0 -15 3 -24 6 -13
5 -16 -2 -16 -35z m136 -36 c19 -14 19 -14 -2 -15 -12 0 -27 7 -34 15 -17 20
9 21 36 0z"/>
<path d="M110 6650 c0 -5 5 -10 11 -10 5 0 7 5 4 10 -3 6 -8 10 -11 10 -2 0
-4 -4 -4 -10z"/>
<path d="M0 6481 c0 -34 19 -44 66 -35 19 3 40 2 47 -4 6 -5 32 -12 55 -16 24
-4 61 -15 82 -26 29 -15 45 -17 62 -11 13 6 18 10 11 10 -7 1 -10 8 -7 16 4 8
1 15 -5 15 -7 0 -15 -10 -20 -22 -7 -19 -8 -19 -14 -4 -4 10 -11 14 -17 11 -5
-3 -10 -1 -10 5 0 6 -5 8 -11 4 -6 -3 -14 -3 -18 2 -11 15 -50 34 -70 34 -27
0 -73 21 -88 40 -8 10 -12 11 -13 3 0 -9 -7 -10 -25 -3 -23 9 -25 7 -25 -19z"/>
<path d="M335 6470 c10 -11 24 -20 32 -20 24 0 14 15 -18 27 -31 12 -31 12
-14 -7z"/>
<path d="M395 6440 c3 -5 8 -10 11 -10 2 0 4 5 4 10 0 6 -5 10 -11 10 -5 0 -7
-4 -4 -10z"/>
<path d="M375 6386 c11 -8 29 -15 40 -15 16 0 17 1 5 8 -8 5 -26 12 -40 16
-24 7 -24 7 -5 -9z"/>
<path d="M594 6351 c7 -10 117 -63 122 -59 3 4 -112 68 -122 68 -3 0 -3 -4 0
-9z"/>
<path d="M3 6294 c5 -51 3 -48 42 -61 36 -12 55 -7 55 15 0 12 4 11 23 -6 26
-24 57 -28 75 -10 9 9 2 17 -29 36 -22 13 -46 21 -54 18 -8 -3 -21 1 -28 9
-11 11 -17 11 -27 2 -10 -9 -10 -7 0 13 12 23 12 24 -3 11 -10 -7 -17 -9 -17
-3 0 5 -9 12 -21 15 -19 5 -21 2 -16 -39z"/>
<path d="M3362 6294 c2 -22 4 -22 20 -7 22 20 22 20 -2 26 -16 4 -19 0 -18
-19z"/>
<path d="M3433 6293 c-18 -6 -16 -23 1 -23 17 0 30 16 19 23 -5 2 -14 2 -20 0z"/>
<path d="M735 6280 c3 -5 8 -10 11 -10 2 0 4 5 4 10 0 6 -5 10 -11 10 -5 0 -7
-4 -4 -10z"/>
<path d="M3678 6253 c22 -9 13 -20 -28 -37 -39 -15 -55 -46 -25 -46 8 0 15 -4
15 -10 0 -15 64 27 71 47 10 29 -2 53 -25 52 -11 0 -15 -3 -8 -6z"/>
<path d="M425 6240 c-3 -5 -1 -10 4 -10 6 0 11 5 11 10 0 6 -2 10 -4 10 -3 0
-8 -4 -11 -10z"/>
<path d="M105 6208 c-12 -27 -59 -40 -49 -14 3 9 1 16 -5 16 -6 0 -11 -7 -11
-15 0 -9 -6 -12 -17 -8 -15 5 -15 3 2 -11 20 -17 20 -17 -3 -13 -22 5 -22 4
-22 -99 0 -57 4 -104 8 -104 4 0 16 22 26 50 18 49 18 50 78 62 33 7 63 18 65
25 6 15 43 18 43 4 0 -13 67 -23 101 -16 25 6 29 11 24 28 -4 12 -3 18 2 12 4
-5 17 -10 27 -10 25 0 32 -22 9 -28 -11 -3 -8 -5 10 -6 16 0 26 -5 22 -11 -4
-6 10 -10 34 -10 39 0 40 1 24 18 -10 10 -20 17 -21 16 -2 -1 -16 9 -31 24
-15 15 -37 33 -49 40 -27 15 -56 16 -46 1 5 -8 1 -8 -14 0 -15 8 -23 7 -32 -4
-6 -8 -9 -19 -5 -26 6 -8 2 -8 -14 0 -26 14 -27 25 -2 37 17 8 15 12 -20 36
-37 26 -39 27 -39 7 0 -11 4 -18 9 -15 5 3 11 -3 14 -13 4 -17 1 -18 -27 -10
-17 5 -32 14 -34 19 -2 6 -12 10 -22 10 -10 0 -20 7 -22 16 -2 11 -6 9 -13 -8z
m2 -70 c-3 -7 -5 -2 -5 12 0 14 2 19 5 13 2 -7 2 -19 0 -25z m-52 -8 c3 -5 1
-10 -4 -10 -6 0 -11 5 -11 10 0 6 2 10 4 10 3 0 8 -4 11 -10z m105 0 c0 -5 -4
-10 -10 -10 -5 0 -10 5 -10 10 0 6 5 10 10 10 6 0 10 -4 10 -10z m145 -21
c-10 -15 -25 -10 -19 6 4 8 10 12 15 9 5 -3 7 -10 4 -15z"/>
<path d="M40 5993 c0 -10 63 -53 78 -53 14 0 34 -35 25 -44 -3 -3 -14 -6 -24
-6 -9 0 -20 -6 -22 -12 -3 -8 -6 -5 -6 5 -1 10 -5 15 -11 12 -5 -3 -10 -2 -10
3 0 6 -9 8 -20 5 -16 -4 -20 0 -20 18 0 22 0 22 -15 3 -8 -10 -15 -36 -15 -56
0 -39 13 -51 24 -21 6 14 10 12 26 -12 11 -17 20 -26 20 -20 0 5 7 -1 16 -13
8 -12 12 -27 8 -34 -4 -6 5 -3 19 8 30 22 30 35 -1 49 -24 11 -28 20 -11 30
10 7 103 9 130 3 9 -2 14 5 13 20 -1 24 4 26 25 13 18 -11 41 -3 41 14 0 17
-42 27 -52 12 -8 -12 -9 -10 -12 16 0 6 -7 12 -13 12 -7 0 -13 -4 -12 -9 2
-20 -30 -27 -48 -11 -52 47 -133 88 -133 68z"/>
<path d="M1340 5996 c0 -4 78 -46 86 -46 13 0 -9 20 -38 34 -30 16 -48 20 -48
12z"/>
<path d="M1445 5940 c4 -6 11 -8 16 -5 14 9 11 15 -7 15 -8 0 -12 -5 -9 -10z"/>
<path d="M440 5916 c0 -2 7 -7 16 -10 8 -3 12 -2 9 4 -6 10 -25 14 -25 6z"/>
<path d="M1549 5895 c18 -8 36 -15 40 -15 13 1 -45 29 -59 29 -8 0 0 -6 19
-14z"/>
<path d="M255 5840 c3 -5 11 -10 16 -10 6 0 7 5 4 10 -3 6 -11 10 -16 10 -6 0
-7 -4 -4 -10z"/>
<path d="M304 5774 c3 -9 6 -18 6 -20 0 -2 7 -4 15 -4 34 0 12 -20 -22 -21
-52 -2 -66 1 -83 15 -25 21 -59 25 -88 10 -15 -8 -21 -14 -14 -14 6 0 12 -5
12 -11 0 -6 -9 -9 -20 -6 -10 3 -21 0 -23 -7 -2 -6 -18 3 -36 22 -18 17 -37
32 -42 32 -5 0 -9 -25 -9 -55 l0 -55 53 -2 c28 -1 67 -2 85 -3 21 0 32 4 32
13 0 9 9 12 28 8 119 -20 112 -20 112 4 0 21 3 22 51 17 44 -5 50 -3 44 10 -3
9 0 20 7 24 9 6 6 8 -7 7 -39 -2 -75 18 -75 41 0 6 -7 11 -16 11 -11 0 -14 -5
-10 -16z"/>
<path d="M60 5750 c0 -13 18 -22 24 -11 3 5 -1 11 -9 15 -8 3 -15 1 -15 -4z"/>
<path d="M667 5723 c-12 -11 -8 -23 8 -23 8 0 15 7 15 15 0 16 -12 20 -23 8z"/>
<path d="M450 5650 c0 -5 5 -10 11 -10 5 0 7 5 4 10 -3 6 -8 10 -11 10 -2 0
-4 -4 -4 -10z"/>
<path d="M5318 5630 c-9 -10 -14 -20 -12 -23 2 -2 8 -35 13 -73 6 -50 5 -78
-4 -100 -7 -17 -12 -57 -10 -90 1 -48 5 -60 20 -63 13 -2 16 1 12 12 -4 11 1
17 16 19 12 2 26 13 32 25 10 24 32 33 86 33 30 0 39 6 67 46 19 27 35 64 39
90 3 24 10 44 16 44 5 0 3 8 -4 17 -13 15 -12 16 8 11 13 -4 25 -2 28 2 7 12
-26 18 -51 9 -20 -7 -93 14 -161 46 -41 20 -74 18 -95 -5z"/>
<path d="M180 5630 c0 -5 5 -10 10 -10 6 0 10 5 10 10 0 6 -4 10 -10 10 -5 0
-10 -4 -10 -10z"/>
<path d="M330 5622 c0 -4 9 -13 20 -20 12 -7 20 -8 20 -2 0 5 1 13 3 17 1 3
-8 8 -20 9 -13 2 -23 0 -23 -4z"/>
<path d="M235 5600 c-7 -11 -4 -12 25 -12 33 0 36 2 20 12 -19 13 -37 13 -45
0z"/>
<path d="M385 5590 c3 -5 10 -10 16 -10 5 0 9 5 9 10 0 6 -7 10 -16 10 -8 0
-12 -4 -9 -10z"/>
<path d="M430 5570 c0 -5 5 -10 11 -10 5 0 7 5 4 10 -3 6 -8 10 -11 10 -2 0
-4 -4 -4 -10z"/>
<path d="M110 5550 c0 -5 5 -10 11 -10 5 0 7 5 4 10 -3 6 -8 10 -11 10 -2 0
-4 -4 -4 -10z"/>
<path d="M544 5550 c-9 -9 -36 -12 -119 -9 -79 2 -124 -2 -130 -11 -3 -4 -23
-11 -45 -15 -22 -4 -40 -11 -40 -16 0 -16 -35 -9 -49 10 -8 11 -21 17 -28 14
-12 -5 -12 -7 -2 -14 10 -6 5 -11 -14 -18 -36 -14 -57 -14 -37 -1 8 5 11 10 5
10 -5 0 -16 -4 -23 -9 -16 -10 -1 -24 41 -40 32 -12 37 -36 6 -26 -20 7 -22 5
-16 -29 5 -33 4 -35 -14 -26 -11 6 -19 7 -19 1 0 -5 11 -12 25 -15 14 -4 25
-11 25 -16 0 -6 5 -10 10 -10 18 0 61 -53 56 -67 -3 -7 0 -13 7 -13 7 0 26
-14 43 -31 18 -19 22 -28 11 -24 -12 5 -17 2 -17 -10 0 -11 5 -15 15 -11 9 3
20 -3 27 -14 7 -11 17 -20 22 -20 13 0 42 -36 57 -73 l14 -32 5 35 c4 29 9 35
29 35 30 0 37 17 13 30 -56 30 -125 92 -143 129 -23 45 -35 106 -22 106 5 0 9
9 10 20 1 11 9 27 17 36 9 8 16 19 16 24 0 4 15 14 33 21 35 15 44 17 97 24
19 2 35 5 35 5 0 1 25 3 55 4 115 6 186 26 125 36 -22 4 -47 10 -55 14 -9 3
-20 2 -26 -4z m-380 -86 c4 -10 1 -14 -6 -12 -15 5 -23 28 -10 28 5 0 13 -7
16 -16z"/>
<path d="M4716 5535 c-29 -31 -36 -78 -11 -69 8 4 15 12 15 19 0 7 7 16 16 19
13 5 14 9 5 20 -9 11 -9 15 1 19 7 2 10 8 6 12 -4 4 -18 -5 -32 -20z"/>
<path d="M760 5546 c0 -2 7 -6 15 -10 8 -3 15 -1 15 4 0 6 -7 10 -15 10 -8 0
-15 -2 -15 -4z"/>
<path d="M80 5530 c0 -5 5 -10 11 -10 5 0 7 5 4 10 -3 6 -8 10 -11 10 -2 0 -4
-4 -4 -10z"/>
<path d="M163 5526 c5 -16 27 -19 27 -3 0 7 -7 14 -15 14 -9 0 -14 -5 -12 -11z"/>
<path d="M806 5525 c4 -8 8 -15 10 -15 2 0 4 7 4 15 0 8 -4 15 -10 15 -5 0 -7
-7 -4 -15z"/>
<path d="M60 5405 c0 -8 5 -15 10 -15 6 0 10 7 10 15 0 8 -4 15 -10 15 -5 0
-10 -7 -10 -15z"/>
<path d="M630 5392 c0 -6 9 -12 20 -15 11 -3 20 -3 20 -1 0 2 -9 8 -20 14 -11
6 -20 7 -20 2z"/>
<path d="M4970 5339 c-85 -52 -150 -119 -155 -159 -1 -8 -5 -27 -9 -43 -11
-35 7 -57 46 -57 16 0 27 4 24 9 -3 5 12 4 35 -2 32 -8 40 -14 36 -28 -3 -11
-1 -17 4 -13 5 3 9 11 9 17 0 7 14 21 31 31 16 10 34 28 39 41 10 25 6 197 -5
214 -9 15 -15 14 -55 -10z"/>
<path d="M0 5280 c0 -11 5 -20 11 -20 5 0 7 -5 3 -12 -12 -20 -12 -88 0 -88 6
0 20 -9 29 -21 10 -11 21 -18 24 -15 10 10 -18 65 -31 60 -7 -3 -12 4 -12 16
0 11 4 20 9 20 4 0 6 4 2 9 -3 5 -1 12 5 16 13 8 80 -13 80 -25 0 -5 7 -7 15
-4 8 3 17 0 20 -8 3 -7 17 -15 30 -16 23 -2 24 0 13 18 -7 11 -21 20 -30 20
-10 0 -18 4 -18 9 0 5 -10 7 -22 4 -13 -3 -20 -3 -16 2 10 10 -14 33 -29 28
-7 -3 -13 0 -13 7 0 7 -8 10 -20 7 -11 -3 -18 -1 -14 4 3 5 -4 9 -15 9 -14 0
-21 -6 -21 -20z"/>
<path d="M744 5267 c-3 -9 -13 -13 -26 -9 -13 3 -19 1 -15 -5 4 -6 0 -13 -8
-17 -8 -3 -15 -1 -15 4 0 25 -20 6 -26 -24 -3 -19 -12 -37 -20 -40 -17 -7 -18
-38 -2 -54 10 -10 10 -17 -1 -34 -11 -18 -11 -20 3 -15 8 3 18 2 21 -3 4 -6 1
-10 -5 -10 -6 0 -18 -6 -25 -14 -11 -10 -11 -16 -2 -26 10 -10 6 -11 -15 -6
-37 8 -35 0 3 -19 19 -10 29 -22 25 -31 -3 -9 3 -16 19 -20 13 -3 43 -28 66
-55 23 -27 48 -49 56 -49 7 0 13 -5 13 -10 0 -6 17 -18 38 -28 20 -9 58 -31
83 -48 25 -18 61 -40 80 -49 19 -10 42 -27 52 -38 9 -11 17 -15 17 -8 0 7 5 9
10 6 6 -4 9 -14 8 -22 -3 -15 7 -19 102 -51 8 -3 23 -6 32 -7 10 -1 26 -9 36
-18 10 -10 21 -15 24 -12 3 3 11 -1 18 -10 7 -8 18 -15 24 -15 7 0 17 -5 24
-12 9 -9 8 -16 -4 -29 -11 -12 -13 -23 -6 -35 6 -11 12 -13 16 -5 4 6 13 7 24
2 84 -42 102 -49 102 -38 0 8 4 7 13 -2 10 -10 9 -15 -5 -25 -27 -20 -22 -37
10 -34 24 3 27 0 30 -31 3 -30 1 -33 -11 -22 -9 7 -18 8 -21 2 -7 -11 -47 -3
-61 14 -13 15 -50 25 -62 16 -5 -3 -14 -22 -20 -42 -10 -36 -10 -37 14 -34 14
1 27 -3 30 -11 2 -7 10 -11 17 -8 6 2 21 -5 33 -16 12 -11 27 -20 33 -20 13 0
13 -10 0 -30 -6 -9 -10 -10 -10 -3 0 7 -10 12 -22 11 -43 -1 -70 13 -64 34 4
16 1 19 -15 15 -10 -3 -19 -1 -19 4 0 5 -11 7 -25 3 -18 -4 -27 -1 -31 10 -3
9 -16 16 -29 16 -13 0 -25 7 -29 15 -6 17 -36 21 -36 5 0 -5 4 -10 10 -10 5 0
9 -5 7 -12 -1 -6 9 -14 22 -17 21 -6 22 -8 7 -20 -9 -7 -16 -17 -16 -22 0 -15
27 -10 34 6 3 8 13 15 23 15 15 0 14 -4 -7 -20 -14 -11 -30 -20 -36 -20 -10 0
-28 -40 -21 -46 1 -1 18 -3 37 -5 19 -2 47 -11 62 -21 14 -10 31 -18 38 -18 7
0 9 -8 5 -21 -5 -15 -3 -20 6 -17 7 2 13 12 15 22 1 10 6 25 9 34 6 14 8 13
16 -7 7 -18 5 -28 -6 -41 -8 -9 -15 -21 -15 -27 0 -6 -7 -14 -16 -17 -23 -9
-36 -7 -29 4 3 5 0 7 -8 4 -22 -8 -49 24 -41 49 6 19 5 20 -9 9 -9 -8 -13 -21
-10 -29 4 -10 2 -14 -4 -10 -6 4 -13 3 -15 -2 -1 -4 -14 -12 -28 -16 -23 -7
-23 -7 -7 9 19 19 22 36 8 36 -14 0 -41 -41 -35 -52 3 -4 18 -8 34 -8 16 0 32
-5 35 -11 4 -6 13 -8 20 -5 12 4 35 -11 35 -25 0 -4 -18 -6 -40 -6 -22 1 -40
5 -40 8 0 4 -12 9 -27 12 -36 7 -56 -9 -43 -33 5 -9 6 -20 3 -24 -4 -3 2 -13
13 -20 10 -8 15 -18 11 -23 -5 -4 -14 -1 -20 8 -7 9 -23 15 -37 14 -23 -2 -58
11 -70 26 -3 4 -16 9 -30 13 -23 7 -24 6 -5 -6 19 -12 18 -13 -15 -19 l-35 -6
40 -3 c35 -2 37 -3 15 -10 -22 -7 -21 -8 13 -9 21 -1 36 -5 33 -10 -3 -4 4
-17 16 -27 15 -14 22 -16 25 -6 3 6 10 12 16 12 8 0 7 -4 -1 -12 -7 -7 -12
-15 -12 -19 0 -11 58 -31 70 -24 9 6 9 2 0 -15 -6 -12 -9 -33 -6 -46 7 -26 -8
-34 -18 -9 -4 11 -21 15 -68 14 -35 -1 -52 -4 -38 -6 14 -3 27 -9 30 -13 3 -5
21 -12 40 -15 42 -7 52 -21 37 -52 -14 -30 -27 -29 -27 2 0 14 -4 25 -9 25
-13 0 -23 -18 -12 -22 4 -1 12 -14 16 -27 6 -20 4 -23 -9 -18 -25 10 -79 -4
-67 -16 15 -15 14 -24 -4 -24 -8 0 -15 6 -15 14 0 7 -4 13 -8 13 -19 0 -10 60
13 84 14 15 20 28 14 32 -6 3 -26 -12 -45 -34 l-34 -40 -29 27 c-25 22 -26 27
-12 33 9 4 -1 5 -22 2 -23 -4 -43 -2 -52 6 -8 6 -20 10 -27 7 -7 -3 3 -12 24
-21 20 -9 39 -20 43 -26 10 -15 74 -40 89 -34 9 3 15 -4 18 -21 7 -33 -7 -41
-37 -21 -14 9 -25 12 -25 6 0 -5 4 -10 10 -10 5 0 7 -7 3 -16 -3 -9 -9 -12
-12 -7 -3 5 -19 9 -36 9 -25 -1 -30 -5 -28 -24 2 -15 -3 -22 -15 -22 -9 0 -23
-9 -30 -20 -9 -15 -19 -18 -43 -13 -23 4 -30 3 -25 -5 4 -7 1 -12 -8 -12 -9 0
-16 -7 -16 -16 0 -19 25 -46 34 -36 4 3 11 0 16 -8 6 -9 10 -10 10 -3 0 21 39
1 62 -33 13 -19 26 -34 29 -34 3 0 19 12 34 26 23 21 27 22 23 7 -4 -16 0 -19
25 -17 17 1 41 -2 54 -7 14 -5 23 -5 23 1 0 6 5 10 10 10 13 0 1 -52 -13 -62
-7 -4 -7 -11 1 -21 13 -16 6 -27 -17 -27 -10 0 -12 3 -6 8 13 9 14 62 1 54 -5
-3 -7 2 -3 11 8 21 -6 22 -23 2 -9 -11 -10 -15 -1 -15 8 0 10 -8 6 -21 -5 -14
-3 -19 4 -15 12 8 9 -29 -7 -81 -9 -29 -8 -33 8 -33 13 0 17 5 14 14 -6 15 29
32 45 21 5 -3 12 -1 16 5 4 6 11 8 16 5 5 -4 9 1 9 9 0 13 5 14 27 5 22 -8 30
-7 39 5 16 22 23 20 17 -4 -3 -11 0 -20 6 -20 6 0 11 -6 11 -14 0 -18 -80 -31
-91 -15 -5 9 -11 8 -23 -4 -20 -20 -20 -37 0 -37 8 0 12 -5 9 -11 -4 -6 -14
-8 -22 -4 -9 3 -24 -2 -34 -11 -10 -9 -27 -14 -38 -11 -11 3 -22 0 -25 -7 -3
-8 -7 -7 -14 2 -5 8 -13 12 -18 10 -5 -1 -10 8 -12 22 -2 18 4 28 20 35 31 13
39 50 9 42 -24 -6 -46 16 -37 38 3 8 15 15 26 15 22 0 25 7 10 30 -6 10 -10
11 -10 3 0 -7 -6 -13 -13 -13 -7 0 -21 -15 -29 -34 -14 -28 -21 -33 -41 -29
-18 4 -26 0 -29 -13 -2 -12 -15 -18 -45 -21 -26 -2 -43 0 -43 6 0 6 -9 11 -20
11 -12 0 -20 7 -20 16 0 10 -6 14 -14 11 -19 -7 -86 11 -86 23 0 6 -6 10 -14
10 -7 0 -19 6 -25 14 -6 8 -31 19 -54 25 -23 5 -73 26 -111 46 -38 19 -74 35
-81 35 -7 0 -24 9 -38 20 -14 11 -33 20 -42 20 -9 0 -62 22 -118 49 -56 27
-112 51 -125 54 -38 9 -20 -16 29 -40 24 -12 49 -26 56 -32 7 -6 20 -11 30
-12 10 0 32 -9 48 -20 17 -10 37 -21 45 -24 8 -4 47 -22 85 -41 39 -19 75 -34
80 -34 6 0 24 -12 40 -26 17 -14 23 -22 15 -18 -8 4 -11 3 -7 -2 8 -8 80 -31
122 -38 11 -2 46 -17 78 -34 31 -18 57 -29 57 -26 0 3 13 -4 29 -15 16 -12 35
-21 43 -21 7 -1 2 -7 -12 -16 -21 -12 -22 -14 -5 -12 11 2 29 -4 39 -14 10 -9
22 -15 26 -13 5 3 10 -2 14 -10 3 -8 12 -15 21 -15 8 0 15 -4 15 -10 0 -5 7
-10 16 -10 8 0 12 -5 8 -11 -4 -8 1 -9 16 -4 19 6 21 4 16 -13 -4 -11 -2 -23
4 -27 5 -3 10 -11 10 -18 0 -6 -7 -2 -15 9 -14 19 -14 18 -15 -3 0 -14 6 -23
15 -23 8 0 15 -7 15 -15 0 -8 5 -15 10 -15 6 0 10 7 10 15 0 8 -5 15 -10 15
-7 0 -7 6 0 19 5 11 7 27 4 36 -4 9 -3 15 2 14 21 -4 35 2 29 11 -3 6 -1 10 5
10 7 0 14 -9 17 -20 3 -11 14 -20 24 -20 11 0 19 -7 20 -17 0 -11 3 -13 6 -5
8 19 26 14 18 -5 -5 -15 -4 -16 6 -5 16 15 43 16 33 1 -5 -8 0 -10 17 -6 26 6
63 -15 51 -29 -4 -4 0 -3 9 4 14 10 18 10 23 -4 4 -9 12 -14 22 -10 10 4 19
-4 29 -27 13 -30 12 -32 -8 -37 -13 -4 -22 -14 -23 -27 -1 -17 4 -21 25 -18
14 2 29 4 33 4 3 1 4 10 1 21 -4 16 -2 19 11 14 9 -3 16 -1 16 5 0 6 7 11 15
11 21 0 19 -28 -2 -33 -13 -3 -9 -6 12 -11 17 -4 36 -9 43 -12 15 -4 16 -24 1
-24 -5 0 -7 5 -4 10 4 6 -5 10 -20 10 -23 0 -24 -2 -15 -21 15 -27 38 -35 61
-20 14 8 19 8 19 0 0 -6 7 -9 15 -5 10 3 15 -1 15 -11 0 -13 3 -14 12 -5 8 8
8 15 -1 26 -10 11 -7 14 14 12 17 -1 23 -6 20 -16 -2 -8 -1 -21 4 -28 6 -10
10 -7 15 12 4 17 13 26 27 26 12 0 19 -5 16 -12 -2 -7 -11 -12 -20 -12 -9 1
-18 -9 -22 -23 -3 -13 -10 -21 -15 -18 -6 3 -17 2 -26 -3 -15 -8 -15 -11 4
-30 16 -16 17 -22 7 -26 -8 -3 -24 6 -37 19 -29 31 -34 31 -52 -3 -13 -24 -12
-30 4 -49 15 -18 19 -20 24 -8 3 8 11 15 17 15 7 0 5 -8 -5 -19 -10 -11 -24
-17 -32 -14 -19 7 -18 -6 3 -29 15 -17 15 -18 0 -18 -10 0 -17 5 -17 10 0 6
-4 10 -9 10 -11 0 -21 -48 -11 -52 4 -2 5 -18 3 -35 -3 -18 -9 -30 -14 -27 -5
3 -9 0 -9 -5 0 -6 8 -10 18 -8 9 1 18 -2 18 -8 1 -5 -3 -9 -8 -7 -6 1 -16 -5
-24 -15 -13 -17 -13 -17 -14 1 0 16 -2 17 -16 5 -15 -12 -14 -15 7 -32 14 -11
25 -15 27 -8 7 22 23 10 20 -15 -3 -23 1 -27 29 -29 18 -1 30 1 27 6 -3 5 -15
9 -27 9 -16 0 -18 3 -9 12 8 8 15 8 27 -2 13 -11 18 -10 33 3 12 11 22 13 32
7 8 -5 20 -10 25 -10 6 0 5 4 -2 8 -7 4 -10 17 -6 30 5 19 10 22 34 17 22 -5
29 -3 29 9 0 9 -4 16 -10 16 -5 0 -7 7 -4 15 4 10 0 15 -15 15 -12 0 -21 4
-21 9 0 5 -3 18 -6 28 -5 17 -5 17 6 0 6 -9 17 -17 25 -17 8 0 18 -7 22 -15 7
-12 15 -13 46 -3 40 12 44 31 9 36 -12 2 -20 8 -17 13 4 5 -1 12 -9 15 -9 3
-16 11 -16 17 0 5 9 2 19 -7 11 -10 25 -15 30 -11 6 3 11 -1 11 -9 0 -18 16
-29 31 -21 7 5 5 13 -6 25 -34 38 30 33 71 -5 16 -15 5 -35 -18 -35 -17 0 -18
3 -8 15 18 21 -2 19 -21 -2 -9 -10 -25 -23 -35 -29 -14 -9 -16 -15 -8 -24 8
-8 14 -9 18 -1 5 8 11 7 20 -1 11 -11 8 -17 -17 -35 -21 -16 -34 -20 -41 -13
-13 13 -46 13 -46 0 0 -5 7 -10 15 -10 8 0 15 -4 15 -9 0 -5 3 -16 6 -24 3 -9
-2 -16 -15 -20 -12 -3 -22 1 -25 10 -8 21 -25 7 -19 -16 3 -11 -1 -21 -9 -24
-7 -2 -1 -2 14 0 23 4 27 2 22 -12 -9 -23 15 -36 39 -23 14 7 22 7 26 0 7 -12
29 -11 49 1 16 11 31 0 43 -30 7 -18 14 -23 28 -18 14 4 29 -4 53 -27 18 -18
40 -31 50 -30 9 2 19 -2 23 -8 4 -6 22 -8 46 -4 40 7 49 -2 27 -24 -9 -9 -8
-12 5 -12 9 0 17 5 17 10 0 6 5 10 11 10 6 0 8 -7 5 -16 -4 -12 -1 -14 14 -9
23 7 23 9 11 -31 -7 -26 -5 -34 10 -45 23 -16 25 -29 4 -29 -9 0 -25 16 -36
35 -23 38 -29 41 -46 24 -6 -6 -21 -9 -34 -7 -19 2 -23 8 -21 28 4 21 2 22
-12 11 -9 -7 -13 -18 -9 -24 3 -6 1 -7 -5 -3 -6 4 -9 13 -6 20 5 14 -32 33
-43 22 -3 -3 -15 0 -26 6 -11 6 -34 12 -51 13 -65 6 -70 8 -31 14 39 6 39 7
17 19 -20 11 -27 11 -47 -2 -20 -13 -24 -13 -29 -1 -3 8 -12 12 -20 9 -9 -4
-20 5 -30 23 -8 15 -15 23 -16 16 0 -6 -3 -20 -6 -30 -4 -13 -3 -14 3 -5 12
16 29 -1 35 -33 2 -15 10 -19 31 -17 15 2 27 -1 27 -7 0 -7 10 -9 28 -5 26 6
26 6 7 -9 -17 -13 -22 -13 -41 -1 -11 8 -29 12 -38 8 -9 -3 -16 -2 -16 3 0 13
-70 12 -70 -1 0 -6 -5 -3 -11 7 -12 21 -26 22 -26 2 0 -8 5 -15 11 -15 5 0 1
-7 -10 -15 -26 -19 -74 -20 -74 0 0 17 31 20 46 5 6 -6 11 0 12 19 2 32 -15
51 -28 31 -11 -17 -71 -3 -64 15 6 14 -19 15 -32 2 -12 -11 18 -38 35 -32 13
5 14 4 4 -6 -7 -7 -13 -21 -13 -30 0 -17 -15 -20 -37 -6 -6 4 -19 4 -29 0 -12
-4 -15 -3 -10 5 5 8 0 12 -13 12 -24 0 -25 -4 -11 -30 6 -11 16 -17 24 -14 9
3 16 -5 21 -23 6 -21 9 -23 12 -11 5 20 21 24 20 6 -1 -40 4 -50 22 -45 12 3
27 -3 37 -14 9 -10 23 -19 31 -19 16 0 17 -16 2 -26 -6 -3 -15 0 -20 7 -6 10
-12 4 -23 -21 -16 -39 -12 -45 35 -45 27 0 34 5 40 25 8 30 9 29 15 -43 3 -35
1 -57 -6 -57 -5 0 -10 11 -10 25 0 16 -6 25 -15 25 -18 0 -20 -21 -3 -38 9 -9
9 -12 0 -12 -7 0 -12 -7 -12 -15 0 -9 6 -12 15 -9 11 5 15 -1 15 -20 0 -14 5
-26 10 -26 6 0 10 7 10 16 0 13 6 15 27 9 15 -3 31 -11 34 -17 4 -6 11 -8 17
-4 5 3 12 -3 15 -14 4 -15 0 -20 -15 -20 -11 0 -22 -8 -25 -19 -6 -22 -29 -35
-38 -21 -4 6 -1 10 5 10 6 0 8 5 4 11 -5 8 -10 6 -16 -5 -7 -12 -17 -14 -36
-10 -15 4 -30 11 -33 17 -4 5 -9 5 -14 -2 -4 -7 5 -16 24 -22 17 -6 31 -16 31
-21 0 -7 5 -6 14 1 8 7 16 8 18 3 1 -5 13 -13 26 -17 17 -5 23 -3 21 7 -4 19
20 58 36 58 27 0 24 -18 -5 -32 l-29 -14 29 -32 c17 -18 35 -30 43 -26 19 7
31 -25 16 -42 -6 -8 -21 -14 -33 -14 -17 0 -24 -9 -32 -45 -8 -37 -8 -45 3
-45 8 0 12 4 9 8 -2 4 -1 14 5 22 7 13 9 13 10 0 3 -49 8 -63 22 -72 11 -5 17
-22 17 -42 0 -26 5 -35 22 -39 12 -3 29 -2 39 3 10 6 26 7 36 4 14 -4 12 -1
-6 16 -29 25 -20 36 37 43 34 4 45 2 54 -13 6 -10 17 -16 23 -14 7 3 11 -3 10
-13 -2 -27 -14 -43 -29 -37 -7 3 -18 -7 -24 -21 -8 -17 -8 -24 -2 -20 6 4 18
1 27 -7 12 -9 15 -9 9 0 -4 6 -3 12 3 12 5 0 13 9 16 21 9 26 19 16 20 -19 0
-23 4 -27 28 -24 25 3 27 1 21 -24 -6 -24 -5 -26 15 -21 11 3 21 1 21 -5 0 -6
11 -8 25 -4 17 4 30 0 45 -16 11 -12 29 -23 41 -25 12 -2 29 -8 38 -14 12 -8
9 -9 -17 -5 -24 4 -34 1 -39 -9 -3 -10 -12 -13 -24 -10 -28 9 -23 -10 6 -23
16 -8 23 -17 19 -27 -8 -20 23 -44 53 -40 13 1 23 -2 23 -7 0 -8 -15 -7 -77 3
-22 4 -66 -3 -53 -8 29 -11 48 -34 43 -54 -6 -23 -5 -23 40 -4 30 13 35 13 31
1 -4 -10 6 -16 35 -21 23 -4 38 -11 35 -16 -3 -6 -14 -7 -24 -4 -15 5 -17 2
-13 -16 5 -19 4 -20 -15 -10 -11 6 -22 16 -24 22 -2 7 -11 7 -30 -2 -15 -6
-25 -16 -22 -21 3 -4 10 -6 15 -3 5 4 9 1 9 -4 0 -6 5 -11 11 -11 6 0 9 7 6
14 -11 27 23 5 39 -25 8 -16 21 -29 29 -29 8 0 15 -8 15 -17 0 -13 3 -14 12
-5 16 16 28 15 28 -3 0 -8 5 -15 11 -15 5 0 7 5 4 10 -11 18 14 11 35 -10 11
-11 24 -20 28 -20 4 0 7 -12 6 -28 -1 -21 -6 -27 -25 -28 -90 -3 -101 -13 -56
-55 19 -19 38 -44 42 -56 3 -13 14 -24 23 -25 9 0 24 -1 32 -2 8 -1 16 -9 18
-19 3 -16 1 -17 -17 -7 -12 6 -21 7 -21 1 0 -5 -9 -7 -20 -4 -25 7 -27 -15 -2
-24 9 -4 21 -11 25 -17 5 -7 7 -3 5 8 -4 27 18 31 32 7 9 -17 8 -21 -5 -21 -8
0 -15 -4 -15 -10 0 -5 6 -10 13 -10 8 0 9 -3 1 -8 -6 -4 -16 -22 -22 -39 -10
-30 -9 -32 11 -30 16 1 22 -3 21 -16 -1 -9 4 -17 12 -17 8 0 19 -9 26 -20 13
-20 48 -19 76 3 9 7 16 7 24 -1 13 -13 2 -32 -18 -32 -8 0 -14 -4 -14 -9 0 -5
-21 -6 -47 -3 -44 5 -47 4 -34 -12 11 -13 16 -14 22 -4 7 10 9 8 9 -5 0 -13
-5 -17 -19 -12 -22 7 -38 -23 -20 -39 8 -8 13 -8 16 2 7 19 33 14 33 -7 0 -14
-10 -22 -32 -26 -17 -4 -41 -16 -52 -26 -11 -11 -26 -17 -32 -15 -7 3 -18 -1
-24 -9 -9 -11 -7 -13 12 -9 18 3 16 1 -7 -10 -27 -13 -32 -12 -49 2 -18 16
-19 16 -13 0 3 -10 2 -20 -3 -23 -6 -4 -9 -16 -9 -28 1 -17 2 -18 6 -4 5 19
18 22 28 7 3 -5 27 -7 53 -4 43 5 45 4 29 -9 -10 -9 -18 -18 -18 -21 4 -31 -1
-36 -31 -35 -30 1 -31 2 -8 8 17 5 21 9 12 15 -7 4 -10 12 -7 17 7 10 -6 12
-29 3 -9 -3 -16 -17 -16 -30 0 -19 5 -24 28 -24 21 0 24 -2 12 -10 -11 -7 -7
-10 18 -10 29 0 32 3 32 29 0 16 7 34 15 41 12 10 15 9 15 -5 0 -9 13 -22 30
-28 34 -13 38 -23 13 -30 -10 -3 6 -5 35 -6 33 -1 51 3 47 9 -3 6 1 10 10 10
9 0 14 -4 11 -8 -3 -5 73 -9 169 -11 l173 -2 -5 23 c-8 38 -26 72 -48 90 -17
15 -18 18 -3 18 25 0 29 13 16 47 -10 26 -9 34 4 47 9 9 21 16 27 16 20 0 21
107 2 148 -13 28 -13 35 -2 42 9 5 11 14 6 26 -5 11 -10 35 -12 54 -2 19 -10
41 -17 50 -17 19 -17 107 0 114 6 2 19 19 27 36 15 29 15 32 -4 48 -23 20 -25
32 -5 32 31 0 26 21 -7 35 -21 9 -42 27 -51 46 -20 40 -20 47 -1 66 14 13 14
17 1 32 -8 9 -16 27 -18 41 -2 14 -13 29 -25 35 -24 10 -28 22 -14 43 5 8 0
45 -13 90 -22 79 -21 147 1 147 7 0 20 10 28 23 10 13 27 22 43 22 15 0 33 4
41 9 11 7 9 11 -8 21 -14 7 -20 17 -17 27 4 9 2 21 -3 27 -5 6 -11 25 -14 41
-12 70 -20 95 -33 106 -8 6 -14 21 -14 33 0 12 -6 28 -12 34 -9 9 -10 17 -1
30 9 15 7 21 -9 31 -11 7 -17 18 -14 26 6 16 -21 75 -34 75 -5 0 -14 16 -20
35 -6 19 -20 37 -31 40 -20 7 -78 55 -65 55 3 0 -5 22 -18 49 -14 27 -22 51
-19 55 3 3 1 11 -4 18 -26 33 -21 56 18 84 27 20 37 34 33 47 -3 10 0 17 8 17
8 0 7 4 -4 11 -33 19 -39 43 -22 100 9 29 14 68 11 86 -3 18 -1 35 4 39 5 3 7
10 4 15 -4 5 7 17 24 27 24 13 31 24 31 48 0 27 4 32 38 40 20 5 38 15 38 22
1 6 2 16 3 21 0 5 9 12 19 15 14 5 17 14 14 36 -2 17 1 37 8 45 10 12 10 24 0
61 -13 45 -12 47 11 65 22 18 23 20 7 30 -26 15 -24 69 1 69 11 0 27 3 36 6
14 6 13 8 -5 21 -28 20 -25 39 10 52 34 11 37 22 13 46 -18 18 -20 97 -3 103
5 2 7 17 3 33 -7 36 6 37 45 4 43 -36 72 -32 105 16 l27 39 -26 10 c-31 12
-45 12 -63 1 -12 -8 -12 -12 -2 -25 11 -13 11 -16 -3 -16 -9 0 -16 5 -16 11 0
13 -20 33 -42 42 -10 3 -20 19 -24 34 -4 15 -19 45 -35 67 -28 38 -28 61 -2
81 7 6 11 17 9 25 -10 43 -30 79 -51 90 -28 15 -33 50 -11 72 17 18 0 40 -64
85 -74 52 -106 88 -134 150 -12 27 -16 51 -12 68 4 17 3 24 -4 20 -6 -4 -10 4
-10 19 0 14 -4 27 -9 30 -19 12 -42 128 -37 187 9 104 -18 136 -120 142 -34 2
-66 7 -71 10 -6 4 -13 0 -17 -8 -10 -27 -72 -15 -107 22 -41 42 -46 63 -33
141 8 51 -9 92 -40 93 -12 0 -15 3 -9 6 16 6 7 51 -15 76 -8 9 -11 17 -6 17 5
0 -16 13 -46 28 -95 47 -110 66 -111 147 0 18 -1 19 -10 3 -13 -23 -21 -23
-36 0 -9 16 -8 18 10 18 16 -1 22 6 24 27 1 23 -1 26 -12 17 -11 -9 -14 -6
-18 12 -4 20 -4 20 -6 -4 0 -16 -5 -28 -11 -28 -5 0 -7 8 -4 18 5 16 5 16 -6
-1 -6 -9 -9 -21 -6 -26 9 -13 -45 -24 -57 -12 -17 17 -27 13 -27 -9 0 -24 -27
-16 -35 11 -8 24 -31 25 -44 2 -5 -10 -18 -18 -28 -18 -12 0 -17 -6 -15 -17 3
-21 5 -20 -34 -9 -32 9 -72 -9 -60 -27 3 -5 -1 -16 -10 -23 -11 -9 -18 -9 -22
-2 -4 6 -16 13 -27 16 -19 4 -18 5 2 6 28 1 41 21 14 21 -11 0 -23 5 -26 10
-8 13 -35 13 -35 0 0 -5 7 -7 15 -4 8 4 15 1 15 -5 0 -17 -40 -13 -46 4 -4 8
-10 12 -16 9 -11 -7 10 -34 27 -34 15 0 15 -32 0 -42 -5 -4 0 -17 14 -32 13
-14 20 -30 16 -37 -5 -7 -3 -10 6 -7 8 3 22 -8 31 -24 18 -29 32 -35 43 -18 3
6 11 10 17 10 6 0 8 -3 5 -7 -4 -3 3 -17 15 -30 12 -13 18 -23 15 -23 -4 0 0
-11 9 -25 9 -14 14 -28 10 -32 -3 -3 -6 -1 -6 5 0 6 -12 10 -28 7 -20 -2 -33
3 -43 17 -8 10 -30 27 -49 36 -19 9 -47 25 -62 35 -14 11 -31 16 -37 13 -6 -4
-16 -4 -22 0 -8 4 -7 9 2 15 11 7 10 9 -3 9 -24 0 -54 32 -72 75 -8 19 -20 35
-25 35 -6 0 -11 7 -11 15 0 14 -46 32 -56 22 -8 -8 38 -67 48 -61 4 3 8 1 8
-5 0 -5 -5 -11 -11 -13 -7 -2 -4 -10 7 -18 14 -12 16 -12 9 -1 -5 10 -4 12 3
7 7 -4 12 -16 12 -27 0 -11 5 -17 10 -14 6 3 13 -1 16 -9 3 -9 11 -13 17 -9 5
3 7 1 3 -5 -4 -7 -17 -8 -38 -1 -38 10 -48 5 -19 -11 32 -16 26 -33 -9 -25
-26 6 -29 4 -23 -12 6 -15 4 -16 -9 -5 -13 10 -17 10 -21 0 -3 -9 -10 -6 -22
10 -9 12 -25 22 -36 22 -11 0 -17 5 -14 10 3 6 0 10 -7 10 -9 0 -9 3 2 10 13
8 12 10 -2 10 -10 0 -18 6 -18 14 0 8 -19 18 -44 25 -24 6 -58 23 -76 38 -77
65 -168 160 -175 181 -3 12 -14 22 -23 22 -14 0 -15 2 -2 10 12 8 11 13 -8 39
-23 31 -29 61 -12 61 5 0 7 13 4 28 -5 22 1 35 27 63 20 21 34 29 36 22 3 -7
13 -13 24 -13 13 0 19 7 18 23 0 12 -3 16 -6 9 -2 -6 -9 -9 -14 -6 -6 3 -20 7
-32 9 -12 1 -30 6 -39 10 -12 5 -20 2 -24 -8z m-64 -239 c0 -16 -3 -19 -11
-11 -6 6 -8 16 -5 22 11 17 16 13 16 -11z m1017 -104 c-3 -3 -12 -4 -19 -1 -8
3 -5 6 6 6 11 1 17 -2 13 -5z m163 -84 c0 -5 -7 -7 -15 -4 -8 4 -15 8 -15 10
0 2 7 4 15 4 8 0 15 -4 15 -10z m-750 -200 c0 -5 -2 -10 -4 -10 -3 0 -8 5 -11
10 -3 6 -1 10 4 10 6 0 11 -4 11 -10z m443 -320 c-3 -11 -9 -20 -14 -20 -10 0
-12 33 -3 43 12 12 22 -3 17 -23z m61 -33 c6 -5 0 -5 -14 -1 -33 9 -34 10 -26
31 7 17 8 17 18 -2 6 -11 16 -24 22 -28z m-214 17 c0 -8 -4 -12 -10 -9 -5 3
-10 10 -10 16 0 5 5 9 10 9 6 0 10 -7 10 -16z m155 -44 c3 -5 1 -10 -4 -10 -6
0 -11 5 -11 10 0 6 2 10 4 10 3 0 8 -4 11 -10z m118 -56 c-7 -19 -23 -7 -23
18 0 17 3 18 14 8 8 -6 12 -18 9 -26z m-353 -21 c0 -8 -5 -13 -12 -11 -18 6
-21 25 -3 25 8 0 15 -7 15 -14z m380 3 c0 -3 -4 -8 -10 -11 -5 -3 -10 -1 -10
4 0 6 5 11 10 11 6 0 10 -2 10 -4z m-190 -16 c0 -5 -5 -10 -11 -10 -5 0 -7 5
-4 10 3 6 8 10 11 10 2 0 4 -4 4 -10z m56 -25 c17 -16 30 -22 34 -15 5 7 11 6
19 -3 9 -11 8 -17 -2 -25 -10 -9 -20 -5 -41 14 -19 18 -35 25 -52 21 -26 -5
-31 2 -12 21 17 17 23 15 54 -13z m-171 -5 c-3 -5 -11 -10 -16 -10 -6 0 -7 5
-4 10 3 6 11 10 16 10 6 0 7 -4 4 -10z m75 -41 c0 -8 -7 -16 -16 -16 -10 0
-14 7 -11 19 3 10 1 18 -4 18 -5 0 -9 5 -9 10 0 6 8 5 20 -2 11 -7 20 -20 20
-29z m-32 -94 c-3 -3 -9 2 -12 12 -6 14 -5 15 5 6 7 -7 10 -15 7 -18z m-97
-70 c3 2 18 -7 33 -20 25 -22 27 -25 10 -25 -11 0 -25 5 -32 12 -7 7 -12 8
-12 4 0 -5 -7 -3 -15 4 -8 7 -15 19 -15 27 0 12 3 13 13 4 8 -6 16 -9 18 -6z
m-113 -30 c-4 -18 -1 -25 11 -26 11 0 12 -2 3 -6 -7 -3 -19 0 -27 7 -11 9 -12
16 -2 31 16 26 20 24 15 -6z m67 16 c-3 -6 -14 -9 -25 -8 -24 2 -15 17 11 17
11 0 18 -4 14 -9z m-185 -45 c0 -3 -4 -8 -10 -11 -5 -3 -10 -1 -10 4 0 6 5 11
10 11 6 0 10 -2 10 -4z m133 -166 c4 0 4 7 1 15 -4 8 -2 15 3 15 5 0 10 -22
10 -50 0 -27 -3 -50 -8 -50 -5 0 -9 6 -9 13 0 9 -2 9 -8 0 -8 -12 -52 -7 -52
6 0 9 20 37 20 28 0 -5 5 -5 10 -2 8 5 7 11 0 20 -7 8 -8 20 -4 26 5 9 10 8
19 -4 7 -10 15 -17 18 -17z m88 -3 c25 -13 38 -47 19 -47 -6 0 -8 5 -4 11 5 8
-1 10 -20 7 -20 -4 -26 -2 -22 8 3 8 -1 14 -10 14 -8 0 -12 5 -9 10 8 13 18
13 46 -3z m-61 -126 c0 -5 -7 -12 -16 -15 -14 -5 -15 -4 -4 9 14 17 20 19 20
6z m134 -68 c3 -6 -2 -19 -10 -30 -13 -17 -14 -16 -8 10 5 23 3 27 -15 27 -12
0 -21 6 -21 14 0 11 5 12 25 3 13 -7 27 -17 29 -24z m-414 12 c14 1 39 4 55 6
17 2 36 0 43 -5 8 -5 18 -4 25 3 15 15 38 14 35 -1 -2 -7 -9 -18 -17 -24 -11
-9 -10 -12 8 -17 18 -4 20 -9 12 -29 -11 -30 0 -51 25 -46 12 2 19 -4 21 -17
l3 -20 -9 20 c-5 11 -10 14 -10 8 -1 -16 -31 -17 -31 -2 0 5 -4 8 -9 5 -5 -3
-8 2 -7 11 0 9 -6 18 -14 20 -13 4 -13 3 0 -6 11 -8 7 -9 -17 -5 -29 6 -33 4
-33 -15 0 -19 -5 -21 -47 -20 -44 2 -45 2 -14 8 30 5 32 8 18 19 -12 10 -21
11 -37 2 -11 -6 -19 -7 -18 -1 4 11 -1 12 -29 5 -13 -4 -23 -14 -23 -23 0 -10
-3 -20 -6 -24 -10 -9 -32 16 -27 30 3 7 -2 13 -11 13 -9 0 -16 7 -16 15 0 18
-3 17 38 6 17 -5 32 -7 32 -3 -1 13 -27 42 -32 36 -4 -3 -9 0 -13 7 -6 9 -1
10 20 5 19 -5 31 -3 37 6 6 10 10 10 18 -2 6 -9 10 -10 10 -3 0 7 -7 16 -16
21 -10 6 -14 14 -9 22 4 7 10 8 14 3 3 -5 17 -9 31 -8z m236 6 c-10 -16 -45
-19 -50 -5 -4 10 3 14 25 14 17 0 28 -4 25 -9z m-346 -21 c0 -5 -4 -10 -9 -10
-6 0 -13 5 -16 10 -3 6 1 10 9 10 9 0 16 -4 16 -10z m400 -10 c-1 -8 -38 -50
-44 -50 -3 0 -3 7 1 16 4 11 -1 22 -13 31 -17 12 -15 13 19 11 20 -2 37 -5 37
-8z m-80 -21 c0 -4 -7 -6 -15 -3 -8 4 -15 10 -15 15 0 4 7 6 15 3 8 -4 15 -10
15 -15z m-89 -87 c10 -5 13 -15 9 -32 l-6 -25 -16 33 c-17 33 -15 36 13 24z
m133 -28 c7 -17 0 -34 -14 -34 -5 0 -7 7 -4 15 4 8 1 15 -5 15 -6 0 -11 5 -11
10 0 16 27 11 34 -6z m44 -59 c-3 -3 -9 2 -12 12 -6 14 -5 15 5 6 7 -7 10 -15
7 -18z m106 -39 c-6 -16 -34 -30 -34 -18 0 10 22 32 32 32 4 0 5 -6 2 -14z
m-149 -16 c-3 -5 -11 -10 -16 -10 -6 0 -7 5 -4 10 3 6 11 10 16 10 6 0 7 -4 4
-10z m13 -40 c-7 -11 -16 -20 -20 -20 -11 0 -10 9 5 25 18 21 29 18 15 -5z
m72 0 c0 -5 -7 -10 -15 -10 -8 0 -15 5 -15 10 0 6 7 10 15 10 8 0 15 -4 15
-10z m-13 -26 c-3 -3 -12 -4 -19 -1 -8 3 -5 6 6 6 11 1 17 -2 13 -5z m-377
-34 c0 -18 -3 -19 -20 -10 -22 12 -18 30 6 30 8 0 14 -9 14 -20z m464 -35 c3
-8 1 -15 -3 -15 -5 0 -11 7 -15 15 -3 8 -1 15 3 15 5 0 11 -7 15 -15z m-159
-50 c0 -5 -9 -11 -21 -13 -13 -2 -21 3 -21 13 0 10 8 15 21 13 12 -2 21 -7 21
-13z m-275 -5 c0 -5 -6 -10 -14 -10 -8 0 -18 5 -21 10 -3 6 3 10 14 10 12 0
21 -4 21 -10z m590 -90 c0 -5 -2 -10 -4 -10 -3 0 -8 5 -11 10 -3 6 -1 10 4 10
6 0 11 -4 11 -10z m-120 -130 c8 -5 11 -12 7 -16 -4 -4 -15 0 -24 9 -18 18 -8
23 17 7z m5 -180 c3 -5 1 -10 -4 -10 -6 0 -11 5 -11 10 0 6 2 10 4 10 3 0 8
-4 11 -10z m302 -38 c4 2 19 -7 33 -19 19 -19 21 -23 7 -23 -9 0 -17 -4 -17
-10 0 -5 -6 -10 -14 -10 -9 0 -12 7 -9 21 4 15 0 22 -16 26 -11 3 -21 12 -21
20 0 12 3 13 14 4 8 -6 18 -10 23 -9z m-207 -42 c0 -5 -4 -10 -10 -10 -5 0
-10 5 -10 10 0 6 5 10 10 10 6 0 10 -4 10 -10z m35 -24 c0 -15 -4 -21 -9 -16
-5 5 -6 16 -3 24 9 22 12 20 12 -8z m220 4 c3 -5 1 -10 -4 -10 -6 0 -11 5 -11
10 0 6 2 10 4 10 3 0 8 -4 11 -10z m17 -70 c10 0 18 -4 18 -10 0 -12 -2 -12
-34 0 -14 5 -26 15 -26 22 0 9 3 9 12 0 7 -7 20 -12 30 -12z m-300 -12 c-6 -6
-15 -8 -19 -4 -4 4 -1 11 7 16 19 12 27 3 12 -12z m258 -20 c0 -10 -9 -9 -35
2 -17 8 -16 8 8 7 15 -1 27 -5 27 -9z m-331 -19 c-11 -6 -10 -9 4 -15 9 -3 35
3 58 15 23 12 44 19 47 16 3 -3 -4 -8 -16 -12 -13 -3 -22 -13 -22 -24 0 -11
-4 -19 -9 -19 -5 0 -15 -2 -23 -5 -21 -7 -60 28 -52 48 3 9 11 14 16 11 6 -4
5 -10 -3 -15z m246 -99 c-3 -5 -10 -10 -16 -10 -5 0 -9 5 -9 10 0 6 7 10 16
10 8 0 12 -4 9 -10z m-45 -36 c0 -16 -16 -19 -25 -4 -8 13 4 32 16 25 5 -4 9
-13 9 -21z m-190 -194 c0 -5 -4 -10 -10 -10 -5 0 -10 5 -10 10 0 6 5 10 10 10
6 0 10 -4 10 -10z m355 0 c3 -5 2 -10 -4 -10 -5 0 -13 5 -16 10 -3 6 -2 10 4
10 5 0 13 -4 16 -10z m-38 -6 c-3 -3 -12 -4 -19 -1 -8 3 -5 6 6 6 11 1 17 -2
13 -5z m-350 -86 c-3 -8 -6 -5 -6 6 -1 11 2 17 5 13 3 -3 4 -12 1 -19z m163
-172 c0 -8 -4 -18 -10 -21 -5 -3 -10 3 -10 14 0 12 5 21 10 21 6 0 10 -6 10
-14z m65 -6 c3 -5 1 -10 -4 -10 -6 0 -11 5 -11 10 0 6 2 10 4 10 3 0 8 -4 11
-10z m125 -316 c0 -8 -4 -14 -9 -14 -6 0 -9 9 -8 19 1 22 17 18 17 -5z m390 6
c0 -5 -9 -10 -19 -10 -11 0 -23 5 -26 10 -4 6 5 10 19 10 14 0 26 -4 26 -10z
m-110 -20 c0 -5 -4 -10 -10 -10 -5 0 -10 5 -10 10 0 6 5 10 10 10 6 0 10 -4
10 -10z m47 -1 c-9 -6 -17 -15 -17 -21 0 -7 6 -6 15 2 12 10 21 10 42 1 14 -6
28 -9 31 -7 9 9 31 -44 25 -59 -3 -8 1 -15 8 -15 7 0 10 -2 7 -5 -10 -10 -39
8 -34 21 3 8 0 14 -8 14 -23 0 -26 -13 -11 -37 14 -21 14 -23 0 -23 -8 0 -25
6 -36 13 -17 10 -23 10 -26 0 -6 -18 -23 -16 -23 2 0 20 -26 19 -34 -1 -4 -9
-4 -19 -1 -22 3 -3 5 0 5 6 0 7 5 12 10 12 21 0 9 -28 -15 -32 -13 -3 -22 -1
-19 3 8 14 -10 10 -36 -8 -14 -9 -19 -10 -12 -3 16 19 15 30 -4 30 -8 0 -12 5
-9 11 4 6 14 8 22 5 22 -9 36 3 22 20 -9 11 -8 14 7 15 11 1 24 1 29 0 12 -1
39 65 32 76 -3 5 7 9 21 10 22 1 23 -1 9 -8z m-347 -19 c0 -5 -2 -10 -4 -10
-3 0 -8 5 -11 10 -3 6 -1 10 4 10 6 0 11 -4 11 -10z m50 -10 c0 -5 -2 -10 -4
-10 -3 0 -8 5 -11 10 -3 6 -1 10 4 10 6 0 11 -4 11 -10z m-120 -40 c0 -5 -5
-10 -11 -10 -5 0 -7 5 -4 10 3 6 8 10 11 10 2 0 4 -4 4 -10z m290 -14 c0 -8
-14 -21 -30 -30 -30 -15 -31 -8 -1 25 20 22 31 23 31 5z m-244 -73 c-11 -11
-19 6 -11 24 8 17 8 17 12 0 3 -10 2 -21 -1 -24z m224 7 c0 -5 -5 -10 -11 -10
-5 0 -7 5 -4 10 3 6 8 10 11 10 2 0 4 -4 4 -10z m126 -52 c1 -16 -3 -28 -7
-28 -5 0 -8 -3 -7 -7 2 -14 -14 -43 -24 -43 -5 0 -7 9 -3 19 6 20 -8 23 -34 7
-9 -6 -12 -5 -8 1 9 14 -19 37 -32 28 -7 -3 -8 0 -5 9 3 9 13 15 22 14 42 -3
61 2 56 16 -4 10 2 14 18 13 18 -2 23 -8 24 -29z m34 -38 c0 -5 -7 -10 -15
-10 -8 0 -15 5 -15 10 0 6 7 10 15 10 8 0 15 -4 15 -10z m50 -25 c11 -13 8
-15 -18 -15 -24 0 -30 4 -26 15 4 8 12 15 19 15 7 0 18 -7 25 -15z m40 -12 c0
-19 -3 -24 -10 -17 -6 6 -8 18 -4 27 9 24 14 21 14 -10z m24 -47 c-3 -8 -12
-17 -20 -20 -19 -7 -18 -26 1 -26 8 0 15 5 15 10 0 6 5 10 10 10 18 0 10 -45
-11 -63 -20 -18 -21 -18 -14 2 5 17 2 19 -26 16 -17 -3 -39 0 -48 6 -13 8 -10
9 11 5 30 -7 41 9 26 37 -7 14 -4 17 17 17 14 0 25 5 25 10 0 6 4 10 10 10 5
0 7 -6 4 -14z m76 -99 c0 -16 -3 -19 -9 -8 -5 7 -14 10 -21 6 -8 -5 -8 -1 1
13 15 25 29 19 29 -11z m47 -49 c-3 -8 -6 -5 -6 6 -1 11 2 17 5 13 3 -3 4 -12
1 -19z m-77 -50 c0 -11 8 -18 19 -18 22 0 37 -17 26 -28 -4 -4 -10 -1 -12 6
-3 6 -8 10 -13 7 -9 -6 -80 60 -80 74 0 6 13 2 30 -7 16 -9 30 -25 30 -34z
m-125 12 c3 -5 1 -10 -4 -10 -6 0 -11 5 -11 10 0 6 2 10 4 10 3 0 8 -4 11 -10z
m108 -47 c-7 -2 -19 -2 -25 0 -7 3 -2 5 12 5 14 0 19 -2 13 -5z m154 -39 c-3
-3 -12 -4 -19 -1 -8 3 -5 6 6 6 11 1 17 -2 13 -5z m-157 -64 c0 -5 -2 -10 -4
-10 -3 0 -8 5 -11 10 -3 6 -1 10 4 10 6 0 11 -4 11 -10z m174 -49 c-8 -9 -22
12 -17 26 6 15 7 14 13 -3 4 -10 6 -21 4 -23z m49 -323 c4 -12 1 -25 -5 -29
-6 -4 -8 -11 -4 -17 3 -6 2 -13 -4 -17 -5 -3 -10 -1 -10 6 0 7 -10 23 -22 36
-18 20 -19 23 -5 23 9 0 17 5 17 10 0 20 28 10 33 -12z m14 -80 c-3 -8 -6 -5
-6 6 -1 11 2 17 5 13 3 -3 4 -12 1 -19z m93 -110 c0 -4 -11 -8 -25 -8 -27 0
-34 17 -10 26 8 4 12 11 9 18 -3 6 2 2 10 -8 9 -11 16 -23 16 -28z m-60 13 c0
-14 -29 -21 -36 -9 -4 6 -3 8 4 4 6 -3 13 -2 17 4 8 12 15 13 15 1z m-30 -51
c0 -5 7 -7 15 -4 8 4 15 2 15 -4 0 -16 -33 -24 -42 -10 -11 18 -10 28 2 28 6
0 10 -4 10 -10z m104 -17 c3 -7 1 -15 -4 -18 -6 -4 -10 -1 -10 4 0 6 -7 11
-15 11 -8 0 -15 4 -15 8 0 13 39 9 44 -5z m-104 -37 c0 -2 -7 -7 -16 -10 -8
-3 -12 -2 -9 4 6 10 25 14 25 6z m207 -34 c7 -5 9 -13 4 -21 -7 -11 -11 -9
-20 8 -12 21 -6 27 16 13z m30 -14 c-3 -8 -6 -5 -6 6 -1 11 2 17 5 13 3 -3 4
-12 1 -19z m-27 -53 c0 -8 -4 -15 -10 -15 -5 0 -10 7 -10 15 0 8 5 15 10 15 6
0 10 -7 10 -15z m-265 -15 c-4 -7 2 -9 17 -5 18 4 26 0 35 -20 6 -14 8 -27 3
-30 -9 -5 -67 22 -75 36 -7 11 3 29 16 29 6 0 7 -5 4 -10z m205 -9 c0 -15 -5
-18 -22 -13 -14 3 -19 1 -14 -6 3 -6 1 -14 -5 -18 -6 -3 -15 0 -20 7 -6 10 -9
11 -9 2 0 -7 -9 -13 -21 -13 -11 0 -17 5 -14 10 4 6 10 8 15 5 4 -3 11 2 14
11 3 8 10 13 14 10 5 -3 18 1 28 9 26 19 34 18 34 -4z"/>
<path d="M984 3497 c3 -10 6 -25 6 -33 0 -8 5 -14 10 -14 15 0 12 22 -7 45
-14 18 -15 18 -9 2z"/>
<path d="M1029 3497 c7 -9 18 -14 23 -11 6 4 13 3 17 -2 13 -19 50 -34 57 -23
3 6 4 11 3 12 -7 4 -74 29 -94 35 -18 5 -18 3 -6 -11z"/>
<path d="M3265 5223 c-4 -31 -9 -62 -12 -70 -3 -7 2 -13 11 -13 9 0 21 -12 27
-27 6 -16 16 -35 24 -43 17 -19 55 -88 55 -99 0 -26 -33 -16 -74 22 -35 32
-48 53 -56 90 -6 27 -8 52 -5 57 8 13 -56 51 -73 45 -7 -3 -25 1 -40 9 -15 7
-41 11 -59 9 -18 -3 -64 4 -105 17 -40 12 -98 24 -128 27 -54 5 -55 5 -87 -35
-20 -25 -30 -47 -27 -56 3 -9 1 -16 -5 -16 -6 0 -11 3 -11 8 0 4 -10 20 -23
36 -23 28 -23 28 -22 5 0 -13 9 -41 19 -61 10 -21 16 -42 14 -48 -2 -6 -30 5
-63 26 -99 60 -143 82 -152 75 -6 -3 -10 -23 -11 -44 -2 -42 -15 -73 -47 -103
-12 -11 -25 -32 -29 -47 -4 -16 -11 -24 -19 -21 -8 3 -16 -8 -22 -28 -8 -28
-6 -42 17 -88 15 -30 32 -61 38 -68 6 -7 8 -21 5 -32 -4 -11 -3 -20 2 -20 5 0
16 -18 26 -41 10 -22 28 -51 40 -63 43 -44 129 -106 148 -106 10 0 19 -3 19
-7 0 -5 12 -8 28 -9 139 -4 182 -4 212 1 64 9 144 8 239 -5 144 -18 184 -1
304 129 21 22 42 41 47 41 5 0 19 17 31 38 32 50 51 72 65 72 17 0 44 45 44
72 0 13 -11 41 -24 64 -12 22 -26 60 -30 84 -4 24 -10 48 -13 54 -4 6 -8 26
-10 44 -5 46 -23 79 -71 128 -42 42 -74 54 -153 54 l-37 0 -7 -57z m-515 -122
c0 -11 -4 -9 -14 4 -8 11 -12 24 -9 28 7 11 23 -12 23 -32z m85 -91 c14 -15
15 -20 4 -20 -8 0 -20 9 -27 20 -7 11 -8 20 -4 20 5 0 17 -9 27 -20z"/>
<path d="M870 5249 c0 -5 4 -8 9 -4 5 3 13 0 17 -6 3 -6 0 -15 -7 -20 -10 -6
-4 -9 19 -9 22 0 32 5 32 15 0 8 -9 15 -20 15 -11 0 -20 5 -20 10 0 6 -7 10
-15 10 -8 0 -15 -5 -15 -11z"/>
<path d="M950 5251 c0 -6 17 -13 38 -16 20 -4 46 -10 57 -15 31 -14 40 -16 43
-7 1 4 0 7 -3 7 -3 0 -20 7 -38 17 -37 19 -97 28 -97 14z"/>
<path d="M620 5209 c0 -5 5 -7 10 -4 6 3 10 8 10 11 0 2 -4 4 -10 4 -5 0 -10
-5 -10 -11z"/>
<path d="M10 5121 c0 -9 30 -24 36 -18 2 1 -6 8 -16 15 -11 7 -20 8 -20 3z"/>
<path d="M610 5100 c0 -5 5 -10 11 -10 5 0 7 5 4 10 -3 6 -8 10 -11 10 -2 0
-4 -4 -4 -10z"/>
<path d="M5 5058 c-4 -16 -2 -35 5 -42 8 -11 8 -16 -2 -20 -7 -3 -2 -3 11 0
19 5 23 3 18 -10 -4 -10 -1 -16 7 -16 8 0 16 -6 19 -12 3 -9 8 -10 16 -2 8 7
6 16 -9 32 -12 12 -25 22 -30 22 -6 0 -10 7 -10 15 0 8 -4 15 -10 15 -5 0 -10
5 -10 10 0 6 6 10 13 9 25 -3 37 1 37 15 0 8 -10 14 -24 14 -19 0 -26 -7 -31
-30z"/>
<path d="M79 5080 c-5 -28 -2 -33 19 -36 13 -2 22 1 22 9 0 15 -39 41 -41 27z"/>
<path d="M4883 5040 c3 -11 1 -20 -5 -20 -5 0 -6 -5 -2 -12 5 -8 10 -7 18 3 6
8 19 13 29 11 16 -3 17 -1 7 17 -15 28 -54 29 -47 1z m37 6 c0 -2 -7 -6 -15
-10 -8 -3 -15 -1 -15 4 0 6 7 10 15 10 8 0 15 -2 15 -4z"/>
<path d="M370 5035 c0 -16 16 -20 24 -6 3 5 -1 11 -9 15 -9 3 -15 0 -15 -9z"/>
<path d="M490 5040 c8 -5 22 -9 30 -9 10 0 8 3 -5 9 -27 12 -43 12 -25 0z"/>
<path d="M170 5011 c0 -22 25 -45 39 -37 5 4 12 -3 16 -14 3 -11 9 -19 13 -18
4 1 22 -6 40 -15 17 -10 32 -15 32 -12 0 14 -22 45 -31 45 -6 0 -25 6 -42 14
-18 8 -39 17 -47 19 -11 4 -11 6 3 6 16 1 17 3 3 16 -19 20 -26 19 -26 -4z"/>
<path d="M540 5022 c0 -5 7 -13 16 -16 10 -4 14 -1 12 6 -5 15 -28 23 -28 10z"/>
<path d="M5177 4997 c-32 -27 -27 -37 17 -37 38 0 51 8 60 38 6 19 4 22 -21
22 -15 -1 -40 -11 -56 -23z"/>
<path d="M1495 4974 c-20 -21 -28 -25 -37 -16 -16 16 -51 15 -45 0 2 -7 10
-12 17 -10 7 2 22 -6 34 -17 11 -11 35 -22 51 -26 l30 -6 -27 23 c-30 26 -37
44 -13 34 8 -3 15 -1 15 5 0 6 7 8 16 5 11 -4 14 -1 12 11 -5 27 -26 26 -53
-3z"/>
<path d="M1756 4992 c-3 -6 1 -13 10 -16 23 -9 28 -2 10 13 -8 7 -17 8 -20 3z"/>
<path d="M1583 4953 c-7 -3 -13 -9 -13 -15 0 -7 5 -6 14 1 11 9 15 9 19 -1 4
-9 6 -9 6 -1 1 15 -10 22 -26 16z"/>
<path d="M128 4918 c12 -6 22 -17 22 -25 0 -18 15 -17 31 3 16 20 -3 34 -46
33 -29 0 -29 -1 -7 -11z"/>
<path d="M1355 4920 c3 -5 8 -10 11 -10 2 0 4 5 4 10 0 6 -5 10 -11 10 -5 0
-7 -4 -4 -10z"/>
<path d="M1205 4910 c3 -5 11 -10 16 -10 6 0 7 5 4 10 -3 6 -11 10 -16 10 -6
0 -7 -4 -4 -10z"/>
<path d="M340 4896 c0 -2 7 -7 16 -10 8 -3 12 -2 9 4 -6 10 -25 14 -25 6z"/>
<path d="M0 4843 c0 -16 4 -23 13 -20 7 3 21 -1 32 -9 10 -8 13 -14 7 -14 -23
0 -12 -18 24 -39 l37 -22 -7 23 c-3 13 -6 30 -6 39 0 9 -22 27 -50 42 l-50 26
0 -26z"/>
<path d="M210 4860 c0 -5 5 -10 11 -10 5 0 7 5 4 10 -3 6 -8 10 -11 10 -2 0
-4 -4 -4 -10z"/>
<path d="M360 4850 c0 -5 4 -10 9 -10 5 0 18 -3 28 -6 16 -5 16 -4 -1 10 -23
18 -36 20 -36 6z"/>
<path d="M130 4741 c0 -4 23 -18 50 -31 39 -18 47 -26 35 -32 -8 -5 -19 -7
-23 -4 -5 3 -9 -1 -9 -9 0 -8 5 -15 10 -15 6 0 18 -7 27 -15 14 -12 23 -13 45
-5 22 8 30 8 37 -2 6 -10 8 -8 8 5 0 9 5 17 10 17 6 0 10 5 10 11 0 6 -7 9
-15 5 -8 -3 -15 -1 -15 5 0 6 -4 8 -9 5 -8 -6 -109 40 -121 54 -9 11 -40 20
-40 11z m95 -81 c3 -5 1 -10 -4 -10 -6 0 -11 5 -11 10 0 6 2 10 4 10 3 0 8 -4
11 -10z"/>
<path d="M5120 4730 c-11 -11 -20 -32 -20 -47 0 -16 -7 -40 -14 -55 -13 -25
-13 -30 1 -43 8 -9 25 -15 37 -13 17 2 22 11 24 43 2 22 10 47 17 55 8 8 18
27 24 42 8 21 7 28 -5 32 -27 10 -43 7 -64 -14z"/>
<path d="M810 4709 c0 -5 9 -9 20 -9 11 0 20 2 20 4 0 2 -9 6 -20 9 -11 3 -20
1 -20 -4z"/>
<path d="M877 4689 c7 -7 15 -10 18 -7 3 3 -2 9 -12 12 -14 6 -15 5 -6 -5z"/>
<path d="M1 4669 c-1 -15 6 -32 14 -39 12 -10 15 -10 15 1 0 11 2 11 10 -1 9
-13 10 -13 10 0 1 9 7 4 15 -11 8 -14 25 -34 39 -43 24 -15 26 -15 36 3 13 26
13 34 -2 28 -15 -5 -72 22 -64 30 11 11 -16 33 -39 33 -13 0 -26 6 -28 13 -3
6 -6 0 -6 -14z"/>
<path d="M173 4573 c2 -21 8 -29 25 -31 12 -2 22 -8 22 -13 0 -5 6 -9 14 -9 8
0 14 10 14 25 0 15 -6 25 -14 25 -8 0 -14 5 -14 11 0 5 -5 7 -10 4 -6 -4 -17
-1 -25 5 -11 9 -14 7 -12 -17z"/>
<path d="M2 4573 c3 -19 47 -45 60 -37 4 3 0 16 -9 30 -12 19 -18 22 -24 12
-7 -10 -9 -10 -9 0 0 6 -5 12 -11 12 -6 0 -9 -8 -7 -17z"/>
<path d="M1007 4563 c-3 -5 -3 -14 1 -20 9 -14 40 -21 44 -9 4 12 -39 39 -45
29z"/>
<path d="M249 4500 c-11 -7 -10 -12 5 -29 21 -23 35 -20 33 9 -1 23 -18 32
-38 20z"/>
<path d="M874 4502 c4 -7 1 -12 -6 -12 -8 -1 -6 -6 6 -15 26 -20 47 -19 39 1
-3 8 -12 13 -20 10 -8 -3 -11 -2 -8 3 3 5 0 13 -6 17 -8 4 -9 3 -5 -4z"/>
<path d="M100 4480 c-13 -8 -13 -10 2 -10 9 0 18 -6 21 -12 2 -7 8 -10 12 -6
9 8 -1 38 -12 38 -4 0 -15 -5 -23 -10z"/>
<path d="M150 4455 c0 -8 7 -15 15 -15 8 0 15 -7 15 -15 0 -8 7 -15 15 -15 22
0 18 20 -7 41 -26 23 -38 24 -38 4z"/>
<path d="M305 4460 c3 -5 10 -10 16 -10 5 0 9 5 9 10 0 6 -7 10 -16 10 -8 0
-12 -4 -9 -10z"/>
<path d="M418 4432 c-10 -2 -18 -8 -18 -13 0 -13 27 -11 35 2 9 13 4 16 -17
11z"/>
<path d="M220 4420 c0 -5 5 -10 10 -10 6 0 10 5 10 10 0 6 -4 10 -10 10 -5 0
-10 -4 -10 -10z"/>
<path d="M620 4412 c0 -13 4 -20 10 -17 6 3 10 1 10 -6 0 -7 3 -10 6 -6 3 3
-1 16 -10 29 l-16 22 0 -22z"/>
<path d="M306 4406 c3 -8 13 -17 22 -20 9 -3 24 -9 32 -12 17 -6 -16 22 -42
37 -13 7 -16 6 -12 -5z"/>
<path d="M1215 4400 c3 -5 8 -10 11 -10 2 0 4 5 4 10 0 6 -5 10 -11 10 -5 0
-7 -4 -4 -10z"/>
<path d="M840 4380 c24 -24 30 -25 30 -6 0 8 -7 17 -16 20 -29 11 -34 6 -14
-14z"/>
<path d="M1250 4381 c0 -5 -8 -12 -17 -14 -15 -4 -15 -5 -2 -6 9 0 22 6 29 14
9 10 9 15 1 15 -6 0 -11 -4 -11 -9z"/>
<path d="M1272 4365 c-11 -12 -10 -15 3 -15 8 0 15 7 15 15 0 18 -2 18 -18 0z"/>
<path d="M880 4355 c0 -8 9 -15 19 -15 26 0 35 16 15 24 -25 10 -34 7 -34 -9z"/>
<path d="M1080 4335 c7 -8 17 -15 22 -15 6 0 5 7 -2 15 -7 8 -17 15 -22 15 -6
0 -5 -7 2 -15z"/>
<path d="M1300 4340 c0 -5 4 -10 9 -10 6 0 13 5 16 10 3 6 -1 10 -9 10 -9 0
-16 -4 -16 -10z"/>
<path d="M1140 4300 c0 -5 5 -10 10 -10 6 0 10 5 10 10 0 6 -4 10 -10 10 -5 0
-10 -4 -10 -10z"/>
<path d="M1310 4280 c0 -5 5 -10 11 -10 5 0 7 5 4 10 -3 6 -8 10 -11 10 -2 0
-4 -4 -4 -10z"/>
<path d="M1063 4264 c0 -8 6 -14 13 -14 7 0 15 -6 17 -12 4 -9 6 -8 6 2 1 8
-7 20 -17 27 -15 9 -19 8 -19 -3z"/>
<path d="M1120 4209 c0 -4 14 -12 30 -19 17 -7 30 -18 30 -24 0 -6 4 -5 9 3
11 18 -21 50 -48 48 -12 -1 -21 -4 -21 -8z"/>
<path d="M1006 4165 c4 -8 8 -15 10 -15 2 0 4 7 4 15 0 8 -4 15 -10 15 -5 0
-7 -7 -4 -15z"/>
<path d="M1040 4160 c-13 -8 -12 -11 5 -24 11 -9 26 -16 33 -16 7 0 11 -4 8
-9 -3 -5 5 -16 19 -25 30 -20 35 -20 35 -1 0 8 -9 15 -20 15 -18 0 -19 2 -8
20 7 11 19 20 27 20 23 0 3 13 -24 16 -14 1 -33 5 -42 8 -10 3 -25 1 -33 -4z"/>
<path d="M5382 4127 c-28 -28 -42 -51 -42 -68 0 -23 3 -26 28 -21 39 7 71 30
88 65 11 21 13 32 5 40 -6 6 -11 7 -11 2 0 -5 -6 -2 -12 7 -12 15 -18 12 -56
-25z"/>
<path d="M120 4130 c0 -6 5 -8 10 -5 6 3 10 2 10 -3 0 -5 11 -9 25 -9 15 0 24
4 22 11 -5 15 -67 21 -67 6z"/>
<path d="M1158 4065 c5 -29 6 -30 26 -9 22 21 20 29 -8 32 -20 1 -22 -2 -18
-23z"/>
<path d="M5286 4039 c-16 -4 -33 -6 -38 -3 -4 3 -8 2 -8 -3 0 -10 -57 -43 -76
-43 -8 0 -14 -4 -14 -9 0 -5 -8 -12 -17 -16 -10 -3 -33 -18 -51 -34 -29 -25
-31 -31 -23 -54 14 -35 73 -48 101 -22 11 10 20 24 20 32 0 7 6 13 13 13 6 0
23 9 37 20 39 31 49 23 12 -9 -20 -17 -29 -31 -23 -35 7 -5 4 -16 -8 -34 -40
-57 -35 -91 14 -95 28 -2 29 -1 26 40 -3 52 6 83 24 83 16 0 30 69 20 100 -5
15 -2 20 13 20 11 0 25 6 31 13 18 23 -17 46 -53 36z"/>
<path d="M5374 4021 c3 -4 1 -21 -4 -37 -4 -16 -9 -21 -9 -11 -1 9 -8 17 -16
17 -23 0 -18 -16 15 -43 17 -14 30 -29 30 -32 0 -13 34 -80 48 -94 15 -16 94
-9 100 8 3 8 10 8 24 0 11 -6 26 -8 34 -5 8 3 14 -1 14 -10 0 -17 37 -34 98
-44 28 -4 42 -3 42 4 0 6 4 6 8 -2 9 -13 42 -7 42 8 0 4 -7 13 -15 20 -8 7
-15 9 -15 5 0 -5 -8 -1 -17 8 -30 26 -134 71 -141 60 -5 -6 -16 -5 -31 3 -21
11 -22 12 -5 16 13 3 6 8 -22 16 l-42 12 5 44 c5 44 5 45 -28 50 -68 12 -119
15 -115 7z m216 -155 c0 -11 -19 -15 -25 -6 -3 5 1 10 9 10 9 0 16 -2 16 -4z"/>
<path d="M70 4000 c0 -5 5 -10 11 -10 5 0 7 5 4 10 -3 6 -8 10 -11 10 -2 0 -4
-4 -4 -10z"/>
<path d="M1045 3990 c-3 -5 -1 -10 4 -10 6 0 11 5 11 10 0 6 -2 10 -4 10 -3 0
-8 -4 -11 -10z"/>
<path d="M1070 3970 c0 -5 17 -10 38 -9 30 0 33 2 17 9 -28 12 -55 12 -55 0z"/>
<path d="M970 3950 c0 -5 5 -10 11 -10 5 0 7 5 4 10 -3 6 -8 10 -11 10 -2 0
-4 -4 -4 -10z"/>
<path d="M4980 3900 c0 -5 7 -10 15 -10 8 0 15 5 15 10 0 6 -7 10 -15 10 -8 0
-15 -4 -15 -10z"/>
<path d="M934 3858 c-4 -5 1 -17 10 -26 15 -15 16 -15 16 0 0 9 6 18 12 20 7
3 2 7 -10 10 -12 4 -25 2 -28 -4z"/>
<path d="M1010 3800 c-13 -8 -12 -10 3 -10 9 0 17 5 17 10 0 12 -1 12 -20 0z"/>
<path d="M996 3762 c-3 -5 1 -9 9 -9 8 0 15 4 15 9 0 4 -4 8 -9 8 -6 0 -12 -4
-15 -8z"/>
<path d="M1050 3664 c0 -8 5 -12 10 -9 6 4 8 11 5 16 -9 14 -15 11 -15 -7z"/>
<path d="M780 3649 c0 -5 5 -7 10 -4 6 3 10 8 10 11 0 2 -4 4 -10 4 -5 0 -10
-5 -10 -11z"/>
<path d="M807 3573 c-10 -9 -9 -53 2 -53 6 0 11 60 5 60 0 0 -4 -3 -7 -7z"/>
<path d="M710 3540 c0 -6 7 -10 15 -10 8 0 15 2 15 4 0 2 -7 6 -15 10 -8 3
-15 1 -15 -4z"/>
<path d="M745 3510 c-3 -5 -1 -10 4 -10 6 0 11 5 11 10 0 6 -2 10 -4 10 -3 0
-8 -4 -11 -10z"/>
<path d="M724 3482 c-13 -8 -2 -46 17 -58 9 -5 10 -2 4 12 -4 10 -7 27 -7 37
1 19 1 19 -14 9z"/>
<path d="M701 3434 c0 -11 3 -14 6 -6 3 7 2 16 -1 19 -3 4 -6 -2 -5 -13z"/>
<path d="M3118 3153 c6 -2 18 -2 25 0 6 3 1 5 -13 5 -14 0 -19 -2 -12 -5z"/>
<path d="M882 3009 c-13 -5 -20 -13 -17 -19 10 -17 32 -11 38 10 3 11 4 20 4
19 -1 0 -12 -4 -25 -10z"/>
<path d="M2835 3010 c-3 -6 1 -13 10 -16 19 -8 30 0 20 15 -8 14 -22 14 -30 1z"/>
<path d="M2920 2964 l-25 -14 32 0 c25 0 31 4 27 15 -4 8 -7 15 -8 14 0 -1
-12 -7 -26 -15z"/>
<path d="M1171 2866 c-16 -19 -11 -29 8 -17 7 5 12 14 9 21 -3 9 -8 7 -17 -4z"/>
<path d="M1000 2819 c0 -5 5 -7 10 -4 6 3 10 8 10 11 0 2 -4 4 -10 4 -5 0 -10
-5 -10 -11z"/>
<path d="M1117 2823 c-10 -9 -9 -23 2 -23 5 0 11 7 15 15 5 15 -5 20 -17 8z"/>
<path d="M1076 2807 c3 -10 9 -15 12 -12 3 3 0 11 -7 18 -10 9 -11 8 -5 -6z"/>
<path d="M490 2800 c0 -5 5 -10 11 -10 5 0 7 5 4 10 -3 6 -8 10 -11 10 -2 0
-4 -4 -4 -10z"/>
<path d="M1160 2800 c0 -5 4 -10 9 -10 5 0 18 -3 28 -6 16 -5 16 -4 -1 10 -23
18 -36 20 -36 6z"/>
<path d="M1050 2790 c0 -5 5 -10 10 -10 6 0 10 5 10 10 0 6 -4 10 -10 10 -5 0
-10 -4 -10 -10z"/>
<path d="M1100 2780 c0 -5 5 -10 11 -10 5 0 7 5 4 10 -3 6 -8 10 -11 10 -2 0
-4 -4 -4 -10z"/>
<path d="M840 2760 c0 -5 5 -10 11 -10 5 0 7 5 4 10 -3 6 -8 10 -11 10 -2 0
-4 -4 -4 -10z"/>
<path d="M1067 2750 c3 -11 2 -20 -3 -19 -27 5 -34 -4 -9 -12 20 -6 32 -5 37
4 12 18 5 41 -14 45 -12 2 -15 -2 -11 -18z"/>
<path d="M1435 2730 c-3 -5 -2 -10 4 -10 5 0 13 5 16 10 3 6 2 10 -4 10 -5 0
-13 -4 -16 -10z"/>
<path d="M740 2710 c0 -5 5 -10 11 -10 5 0 7 5 4 10 -3 6 -8 10 -11 10 -2 0
-4 -4 -4 -10z"/>
<path d="M1352 2699 c-7 -12 -11 -24 -7 -27 3 -4 10 0 15 8 8 12 10 12 10 -4
0 -26 8 -17 14 17 6 33 -13 36 -32 6z"/>
<path d="M941 2694 c0 -11 3 -14 6 -6 3 7 2 16 -1 19 -3 4 -6 -2 -5 -13z"/>
<path d="M1030 2701 c0 -6 4 -11 9 -11 5 0 16 -7 25 -15 8 -8 22 -12 31 -9 14
6 14 8 -2 19 -28 19 -63 28 -63 16z"/>
<path d="M898 2663 c6 -2 12 -11 12 -19 0 -9 4 -13 10 -9 14 9 0 35 -19 34
-10 0 -11 -2 -3 -6z"/>
<path d="M70 2642 c0 -26 26 -40 43 -23 8 8 8 11 -2 11 -8 0 -20 8 -27 18 -12
16 -13 15 -14 -6z"/>
<path d="M1132 2631 c-10 -6 -8 -10 9 -14 22 -6 19 -22 -4 -22 -6 0 -21 -14
-33 -32 -16 -24 -24 -29 -33 -20 -8 8 -11 7 -11 -5 0 -26 16 -29 35 -8 14 15
20 17 26 8 10 -15 23 -4 17 14 -3 7 -7 17 -9 23 -2 6 11 9 34 7 22 -2 37 1 37
7 0 6 5 11 10 11 7 0 7 -6 0 -19 -12 -23 5 -40 22 -23 8 8 19 6 37 -6 49 -31
69 -58 39 -53 -5 0 -8 -4 -8 -10 0 -6 8 -9 18 -7 18 3 31 48 13 48 -17 0 -13
27 4 34 26 10 17 27 -11 20 -19 -5 -25 -4 -20 5 4 6 1 11 -8 11 -9 0 -16 5
-16 11 0 6 6 9 13 6 6 -3 20 -8 30 -12 9 -4 17 -3 17 3 0 6 -13 15 -29 20 -22
8 -34 7 -49 -3 -20 -15 -88 -10 -98 6 -6 11 -15 11 -32 0z"/>
<path d="M340 2610 c0 -5 7 -10 16 -10 8 0 12 5 9 10 -3 6 -10 10 -16 10 -5 0
-9 -4 -9 -10z"/>
<path d="M1025 2569 c-4 -6 -5 -12 -2 -15 2 -3 7 2 10 11 7 17 1 20 -8 4z"/>
<path d="M895 2540 c3 -5 8 -10 11 -10 2 0 4 5 4 10 0 6 -5 10 -11 10 -5 0 -7
-4 -4 -10z"/>
<path d="M1186 2535 c4 -8 12 -15 20 -15 19 0 18 16 -2 24 -22 9 -24 8 -18 -9z"/>
<path d="M1230 2541 c0 -5 6 -12 13 -14 7 -3 5 -6 -5 -6 -26 -1 -22 -19 5 -24
20 -4 19 -5 -10 -18 -44 -18 -47 -34 -12 -64 35 -29 45 -31 53 -9 3 8 2 12 -4
9 -5 -3 -20 3 -32 14 -12 12 -17 21 -10 21 6 0 14 -5 17 -10 5 -8 12 -7 22 2
14 11 13 13 -8 19 -20 6 -21 7 -4 8 11 1 25 11 31 24 9 19 7 26 -12 40 -25 19
-44 22 -44 8z"/>
<path d="M3730 2480 c8 -5 20 -10 25 -10 6 0 3 5 -5 10 -8 5 -19 10 -25 10 -5
0 -3 -5 5 -10z"/>
<path d="M1165 2470 c-3 -5 1 -10 9 -10 9 0 16 5 16 10 0 6 -4 10 -9 10 -6 0
-13 -4 -16 -10z"/>
<path d="M1480 2329 c0 -5 5 -7 10 -4 6 3 10 8 10 11 0 2 -4 4 -10 4 -5 0 -10
-5 -10 -11z"/>
<path d="M1003 2273 c3 -5 -18 -7 -46 -6 l-51 3 26 -25 c31 -29 99 -54 134
-50 13 1 27 -2 30 -6 9 -15 44 -10 44 7 0 8 4 13 10 9 5 -3 7 -12 4 -19 -3 -7
1 -18 8 -24 10 -8 16 -5 25 14 6 13 8 24 3 24 -4 0 -10 9 -13 21 -3 12 -10 18
-16 15 -5 -4 -12 -2 -16 4 -3 5 -14 10 -23 10 -9 0 -30 7 -46 15 -29 15 -81
21 -73 8z m44 -29 c-3 -3 -12 -4 -19 -1 -8 3 -5 6 6 6 11 1 17 -2 13 -5z"/>
<path d="M156 2256 c4 -10 -5 -16 -25 -21 -34 -7 -64 -45 -36 -45 8 0 15 -4
15 -10 0 -19 15 -10 33 21 14 25 22 30 42 26 14 -2 28 0 31 4 3 5 0 9 -6 9 -6
0 -18 7 -26 15 -19 19 -35 19 -28 1z"/>
<path d="M230 2220 c0 -5 4 -10 9 -10 5 0 11 -10 13 -22 2 -16 10 -23 25 -22
12 0 20 -3 18 -7 -3 -4 4 -9 15 -12 20 -5 26 3 13 17 -5 4 -8 13 -8 19 0 7
-10 16 -22 22 -13 5 -23 13 -23 17 0 5 -9 8 -20 8 -11 0 -20 -4 -20 -10z"/>
<path d="M1213 2200 c-19 -51 -3 -77 45 -71 6 1 12 -5 12 -14 0 -29 16 -15 18
16 2 27 0 30 -12 20 -10 -8 -16 -9 -21 -1 -3 5 -1 10 4 10 6 0 11 12 10 28 0
15 -3 21 -6 15 -7 -19 -23 -16 -31 7 -7 18 -9 18 -19 -10z"/>
<path d="M1490 2220 c8 -5 24 -9 35 -9 l20 0 -20 9 c-11 5 -27 9 -35 9 -13 1
-13 0 0 -9z"/>
<path d="M1611 2154 c0 -11 3 -14 6 -6 3 7 2 16 -1 19 -3 4 -6 -2 -5 -13z"/>
<path d="M116 2126 c-4 -14 -2 -16 6 -8 8 8 14 7 22 -4 12 -16 50 -9 40 7 -3
5 1 9 8 9 8 1 7 4 -4 10 -26 16 -66 8 -72 -14z"/>
<path d="M450 2140 c0 -5 7 -10 16 -10 8 0 12 5 9 10 -3 6 -10 10 -16 10 -5 0
-9 -4 -9 -10z"/>
<path d="M1127 2118 c-25 -27 -14 -35 12 -9 11 11 17 22 13 24 -4 2 -15 -5
-25 -15z"/>
<path d="M236 2105 c-3 -8 -1 -15 4 -15 6 0 10 7 10 15 0 8 -2 15 -4 15 -2 0
-6 -7 -10 -15z"/>
<path d="M490 2105 c-10 -12 -9 -15 4 -15 10 0 14 5 11 10 -9 14 8 13 23 -2
13 -13 27 -5 17 11 -9 16 -41 13 -55 -4z"/>
<path d="M456 2085 c4 -8 8 -15 10 -15 2 0 4 7 4 15 0 8 -4 15 -10 15 -5 0 -7
-7 -4 -15z"/>
<path d="M480 2070 c0 -5 4 -10 9 -10 6 0 13 5 16 10 3 6 -1 10 -9 10 -9 0
-16 -4 -16 -10z"/>
<path d="M526 2065 c4 -8 10 -15 14 -15 5 0 17 -3 27 -6 14 -4 15 -4 4 4 -7 5
-10 15 -7 21 5 7 -2 11 -18 11 -18 0 -24 -4 -20 -15z"/>
<path d="M605 2040 c3 -5 11 -10 16 -10 6 0 7 5 4 10 -3 6 -11 10 -16 10 -6 0
-7 -4 -4 -10z"/>
<path d="M1047 2021 c-4 -17 -3 -21 5 -13 5 5 8 16 6 23 -3 8 -7 3 -11 -10z"/>
<path d="M1170 2030 c0 -5 5 -10 10 -10 6 0 10 5 10 10 0 6 -4 10 -10 10 -5 0
-10 -4 -10 -10z"/>
<path d="M1008 2023 c7 -3 16 -2 19 1 4 3 -2 6 -13 5 -11 0 -14 -3 -6 -6z"/>
<path d="M1120 2020 c0 -5 5 -10 11 -10 5 0 7 5 4 10 -3 6 -8 10 -11 10 -2 0
-4 -4 -4 -10z"/>
<path d="M1195 2009 c-10 -15 3 -25 16 -12 7 7 7 13 1 17 -6 3 -14 1 -17 -5z"/>
<path d="M1423 1853 c-15 -5 -18 -33 -4 -33 5 0 11 9 14 20 3 11 4 20 4 19 -1
0 -8 -3 -14 -6z"/>
<path d="M1447 1828 c-4 -12 -4 -24 -2 -27 3 -2 5 2 5 10 0 12 2 12 10 -1 12
-20 23 -6 15 19 -8 27 -21 27 -28 -1z"/>
<path d="M1390 1766 c0 -10 9 -16 21 -16 24 0 21 23 -4 28 -10 2 -17 -3 -17
-12z"/>
<path d="M1490 1752 c0 -7 -5 -10 -11 -6 -7 4 -10 1 -7 -7 3 -8 11 -14 19 -15
35 -2 40 -5 34 -14 -3 -5 -1 -10 4 -10 6 0 11 7 11 15 0 8 -5 15 -11 15 -7 0
-18 8 -25 18 -9 11 -13 13 -14 4z"/>
<path d="M1550 1740 c0 -5 5 -10 10 -10 6 0 10 5 10 10 0 6 -4 10 -10 10 -5 0
-10 -4 -10 -10z"/>
<path d="M1121 1711 c-11 -7 -9 -11 7 -20 16 -9 20 -8 18 4 -3 21 -10 25 -25
16z"/>
<path d="M1357 1709 c-18 -10 -18 -12 2 -26 12 -8 26 -11 31 -8 6 3 10 0 10
-8 0 -9 9 -14 24 -13 36 2 30 36 -6 36 -18 0 -28 5 -28 15 0 18 -8 18 -33 4z"/>
<path d="M1322 1640 c0 -19 2 -27 5 -17 2 9 2 25 0 35 -3 9 -5 1 -5 -18z"/>
<path d="M1650 1560 c20 -13 33 -13 25 0 -3 6 -14 10 -23 10 -15 0 -15 -2 -2
-10z"/>
<path d="M1498 1553 c6 -2 10 -9 6 -14 -3 -5 -2 -9 3 -8 31 5 44 -2 39 -23 -3
-13 -3 -18 0 -11 3 8 16 10 35 6 21 -4 29 -2 29 8 0 26 -17 41 -38 35 -11 -4
-23 -2 -27 4 -3 5 -18 10 -33 9 -15 0 -21 -3 -14 -6z m92 -28 c0 -8 -4 -15
-10 -15 -5 0 -10 7 -10 15 0 8 5 15 10 15 6 0 10 -7 10 -15z"/>
<path d="M3293 1503 c4 -3 2 -12 -5 -20 -10 -12 -7 -13 17 -7 19 5 26 3 21 -4
-4 -6 2 -8 14 -5 26 7 26 23 1 23 -11 0 -23 5 -26 10 -3 6 -11 10 -17 10 -6 0
-8 -3 -5 -7z"/>
<path d="M3372 1499 c2 -7 10 -15 17 -17 8 -3 12 1 9 9 -2 7 -10 15 -17 17 -8
3 -12 -1 -9 -9z"/>
<path d="M3240 1464 c-8 -8 -29 -22 -48 -30 -47 -19 -37 -25 23 -12 59 12 64
16 45 29 -13 8 -13 10 0 19 8 5 10 10 4 10 -6 0 -17 -7 -24 -16z"/>
<path d="M1590 1428 c0 -17 27 -44 35 -36 3 3 -4 15 -15 28 -15 17 -20 19 -20
8z"/>
<path d="M3096 1415 c-3 -9 0 -15 9 -15 8 0 15 7 15 15 0 8 -4 15 -9 15 -5 0
-11 -7 -15 -15z"/>
<path d="M1455 1330 c3 -5 8 -10 11 -10 2 0 4 5 4 10 0 6 -5 10 -11 10 -5 0
-7 -4 -4 -10z"/>
<path d="M2775 1320 c3 -5 8 -10 11 -10 2 0 4 5 4 10 0 6 -5 10 -11 10 -5 0
-7 -4 -4 -10z"/>
<path d="M1860 1189 c0 -6 -7 -9 -15 -5 -9 3 -15 0 -15 -9 0 -19 15 -19 34 1
19 18 20 24 6 24 -5 0 -10 -5 -10 -11z"/>
<path d="M1938 1173 c6 -2 12 -11 12 -19 0 -8 5 -14 10 -14 6 0 10 4 10 8 0
12 -22 32 -34 31 -6 0 -5 -3 2 -6z"/>
<path d="M1975 1139 c-4 -6 -13 -8 -21 -5 -7 3 -16 0 -20 -5 -4 -7 3 -10 17
-8 13 2 30 0 37 -4 7 -5 12 -4 12 2 0 6 -5 11 -11 11 -5 0 -7 5 -4 10 3 6 4
10 1 10 -3 0 -8 -5 -11 -11z"/>
<path d="M1930 969 c0 -5 5 -7 10 -4 6 3 10 8 10 11 0 2 -4 4 -10 4 -5 0 -10
-5 -10 -11z"/>
<path d="M2021 934 c0 -11 3 -14 6 -6 3 7 2 16 -1 19 -3 4 -6 -2 -5 -13z"/>
<path d="M2040 940 c0 -5 5 -10 10 -10 6 0 10 5 10 10 0 6 -4 10 -10 10 -5 0
-10 -4 -10 -10z"/>
<path d="M2090 930 c0 -5 7 -10 16 -10 8 0 12 5 9 10 -3 6 -10 10 -16 10 -5 0
-9 -4 -9 -10z"/>
<path d="M1730 914 c0 -8 5 -12 10 -9 6 4 8 11 5 16 -9 14 -15 11 -15 -7z"/>
<path d="M2055 910 c3 -5 11 -10 16 -10 6 0 7 5 4 10 -3 6 -11 10 -16 10 -6 0
-7 -4 -4 -10z"/>
<path d="M1807 893 c-12 -12 -7 -22 8 -17 10 4 15 0 15 -15 0 -12 6 -21 15
-21 19 0 19 27 1 46 -16 15 -29 18 -39 7z"/>
<path d="M1727 863 c-3 -5 1 -14 9 -21 12 -10 14 -10 14 2 0 17 -16 30 -23 19z"/>
<path d="M2120 855 c-11 -13 -10 -14 4 -9 9 3 16 10 16 15 0 13 -6 11 -20 -6z"/>
<path d="M1773 843 c-3 -10 -8 -21 -10 -25 -2 -5 0 -8 4 -8 14 0 34 38 23 45
-6 4 -13 -2 -17 -12z"/>
<path d="M2174 731 c20 -22 26 -25 26 -13 0 4 -10 13 -22 21 -23 14 -23 14 -4
-8z"/>
<path d="M65 710 c3 -5 14 -10 23 -10 15 0 15 2 2 10 -20 13 -33 13 -25 0z"/>
<path d="M204 652 c10 -12 23 -19 28 -16 11 7 11 7 -22 24 -25 13 -25 13 -6
-8z"/>
<path d="M2252 583 c9 -2 15 -10 12 -18 -4 -10 0 -12 15 -8 12 3 21 9 21 13 0
10 -27 20 -48 19 -16 -1 -16 -2 0 -6z"/>
<path d="M420 550 c0 -5 5 -10 11 -10 5 0 7 5 4 10 -3 6 -8 10 -11 10 -2 0 -4
-4 -4 -10z"/>
<path d="M2308 513 c7 -3 16 -2 19 1 4 3 -2 6 -13 5 -11 0 -14 -3 -6 -6z"/>
<path d="M140 506 c0 -2 7 -6 15 -10 8 -3 15 -1 15 4 0 6 -7 10 -15 10 -8 0
-15 -2 -15 -4z"/>
<path d="M530 500 c0 -7 24 -20 36 -20 13 0 1 19 -16 23 -11 3 -20 2 -20 -3z"/>
<path d="M585 480 c-3 -6 0 -10 9 -10 8 0 16 -4 18 -9 2 -5 19 -12 38 -16 42
-9 39 -4 -17 24 -26 13 -44 17 -48 11z"/>
<path d="M2330 429 c0 -5 5 -7 10 -4 6 3 10 8 10 11 0 2 -4 4 -10 4 -5 0 -10
-5 -10 -11z"/>
<path d="M725 412 c17 -10 46 -24 65 -32 19 -8 69 -31 110 -51 79 -39 122 -43
48 -4 -24 12 -69 36 -102 54 -32 17 -66 31 -76 31 -11 0 -22 5 -25 10 -3 6
-16 10 -28 10 -20 0 -19 -2 8 -18z"/>
<path d="M415 410 c3 -5 10 -10 16 -10 5 0 9 5 9 10 0 6 -7 10 -16 10 -8 0
-12 -4 -9 -10z"/>
<path d="M2210 309 c0 -5 5 -7 10 -4 6 3 10 8 10 11 0 2 -4 4 -10 4 -5 0 -10
-5 -10 -11z"/>
<path d="M1040 275 c0 -8 93 -46 104 -42 6 2 -9 14 -33 25 -42 21 -71 28 -71
17z"/>
<path d="M6027 233 c-21 -5 -18 -25 4 -28 21 -3 59 13 59 25 0 10 -30 12 -63
3z"/>
<path d="M145 220 c4 -6 11 -8 16 -5 14 9 11 15 -7 15 -8 0 -12 -5 -9 -10z"/>
<path d="M5968 223 c7 -3 16 -2 19 1 4 3 -2 6 -13 5 -11 0 -14 -3 -6 -6z"/>
<path d="M5955 200 c3 -5 8 -10 11 -10 2 0 4 5 4 10 0 6 -5 10 -11 10 -5 0 -7
-4 -4 -10z"/>
<path d="M1237 189 c7 -7 15 -10 18 -7 3 3 -2 9 -12 12 -14 6 -15 5 -6 -5z"/>
<path d="M2199 185 c-3 -20 3 -50 13 -62 7 -9 7 -13 0 -13 -12 0 -10 -33 3
-42 6 -4 16 -8 24 -8 11 0 9 4 -5 14 -16 13 -17 18 -6 35 6 12 12 31 12 43 0
18 -2 20 -10 8 -7 -12 -11 -10 -19 10 -5 14 -11 21 -12 15z"/>
<path d="M6391 171 c-23 -18 -20 -28 9 -26 8 0 14 6 13 13 -2 7 2 12 7 12 6 0
10 5 10 10 0 15 -12 12 -39 -9z"/>
<path d="M1310 151 c0 -5 14 -12 30 -16 17 -4 30 -11 30 -16 0 -5 9 -9 20 -9
11 0 46 -14 78 -30 33 -17 64 -30 70 -30 6 0 33 -11 60 -25 60 -30 104 -35 57
-7 -16 10 -42 22 -57 25 -15 4 -40 12 -55 19 -15 6 -31 12 -35 12 -4 1 -15 8
-25 16 -10 8 -43 24 -73 34 -30 10 -59 23 -64 27 -13 12 -36 11 -36 0z"/>
<path d="M1045 71 c-3 -5 -1 -12 5 -16 5 -3 10 1 10 9 0 18 -6 21 -15 7z"/>
<path d="M2235 40 c-3 -5 -2 -10 4 -10 5 0 13 5 16 10 3 6 2 10 -4 10 -5 0
-13 -4 -16 -10z"/>
</g>
</svg>
